G04 #@! TF.GenerationSoftware,KiCad,Pcbnew,5.1.5+dfsg1-2*
G04 #@! TF.CreationDate,2020-03-01T10:33:55+10:30*
G04 #@! TF.ProjectId,megasheild,6d656761-7368-4656-996c-642e6b696361,rev?*
G04 #@! TF.SameCoordinates,Original*
G04 #@! TF.FileFunction,Legend,Bot*
G04 #@! TF.FilePolarity,Positive*
%FSLAX46Y46*%
G04 Gerber Fmt 4.6, Leading zero omitted, Abs format (unit mm)*
G04 Created by KiCad (PCBNEW 5.1.5+dfsg1-2) date 2020-03-01 10:33:55*
%MOMM*%
%LPD*%
G04 APERTURE LIST*
%ADD10C,0.300000*%
%ADD11C,0.120000*%
G04 APERTURE END LIST*
D10*
X114633333Y-71789523D02*
X114633333Y-72741904D01*
X115204761Y-71599047D02*
X113204761Y-72265714D01*
X115204761Y-72932380D01*
X115204761Y-73599047D02*
X113871428Y-73599047D01*
X114252380Y-73599047D02*
X114061904Y-73694285D01*
X113966666Y-73789523D01*
X113871428Y-73980000D01*
X113871428Y-74170476D01*
X113871428Y-74551428D02*
X113871428Y-75313333D01*
X113204761Y-74837142D02*
X114919047Y-74837142D01*
X115109523Y-74932380D01*
X115204761Y-75122857D01*
X115204761Y-75313333D01*
X115204761Y-75980000D02*
X113871428Y-75980000D01*
X113204761Y-75980000D02*
X113300000Y-75884761D01*
X113395238Y-75980000D01*
X113300000Y-76075238D01*
X113204761Y-75980000D01*
X113395238Y-75980000D01*
X115109523Y-77789523D02*
X115204761Y-77599047D01*
X115204761Y-77218095D01*
X115109523Y-77027619D01*
X115014285Y-76932380D01*
X114823809Y-76837142D01*
X114252380Y-76837142D01*
X114061904Y-76932380D01*
X113966666Y-77027619D01*
X113871428Y-77218095D01*
X113871428Y-77599047D01*
X113966666Y-77789523D01*
X115204761Y-78646666D02*
X113204761Y-78646666D01*
X115204761Y-79503809D02*
X114157142Y-79503809D01*
X113966666Y-79408571D01*
X113871428Y-79218095D01*
X113871428Y-78932380D01*
X113966666Y-78741904D01*
X114061904Y-78646666D01*
X115204761Y-80741904D02*
X115109523Y-80551428D01*
X115014285Y-80456190D01*
X114823809Y-80360952D01*
X114252380Y-80360952D01*
X114061904Y-80456190D01*
X113966666Y-80551428D01*
X113871428Y-80741904D01*
X113871428Y-81027619D01*
X113966666Y-81218095D01*
X114061904Y-81313333D01*
X114252380Y-81408571D01*
X114823809Y-81408571D01*
X115014285Y-81313333D01*
X115109523Y-81218095D01*
X115204761Y-81027619D01*
X115204761Y-80741904D01*
X115204761Y-82265714D02*
X113204761Y-82265714D01*
X114442857Y-82456190D02*
X115204761Y-83027619D01*
X113871428Y-83027619D02*
X114633333Y-82265714D01*
X115109523Y-84646666D02*
X115204761Y-84456190D01*
X115204761Y-84075238D01*
X115109523Y-83884761D01*
X114919047Y-83789523D01*
X114157142Y-83789523D01*
X113966666Y-83884761D01*
X113871428Y-84075238D01*
X113871428Y-84456190D01*
X113966666Y-84646666D01*
X114157142Y-84741904D01*
X114347619Y-84741904D01*
X114538095Y-83789523D01*
X115204761Y-88075238D02*
X115204761Y-87122857D01*
X113204761Y-87122857D01*
X115109523Y-89503809D02*
X115204761Y-89313333D01*
X115204761Y-88932380D01*
X115109523Y-88741904D01*
X114919047Y-88646666D01*
X114157142Y-88646666D01*
X113966666Y-88741904D01*
X113871428Y-88932380D01*
X113871428Y-89313333D01*
X113966666Y-89503809D01*
X114157142Y-89599047D01*
X114347619Y-89599047D01*
X114538095Y-88646666D01*
X113871428Y-90170476D02*
X113871428Y-90932380D01*
X113204761Y-90456190D02*
X114919047Y-90456190D01*
X115109523Y-90551428D01*
X115204761Y-90741904D01*
X115204761Y-90932380D01*
X113871428Y-91313333D02*
X113871428Y-92075238D01*
X113204761Y-91599047D02*
X114919047Y-91599047D01*
X115109523Y-91694285D01*
X115204761Y-91884761D01*
X115204761Y-92075238D01*
X113871428Y-93599047D02*
X115204761Y-93599047D01*
X113871428Y-92741904D02*
X114919047Y-92741904D01*
X115109523Y-92837142D01*
X115204761Y-93027619D01*
X115204761Y-93313333D01*
X115109523Y-93503809D01*
X115014285Y-93599047D01*
X115109523Y-95408571D02*
X115204761Y-95218095D01*
X115204761Y-94837142D01*
X115109523Y-94646666D01*
X115014285Y-94551428D01*
X114823809Y-94456190D01*
X114252380Y-94456190D01*
X114061904Y-94551428D01*
X113966666Y-94646666D01*
X113871428Y-94837142D01*
X113871428Y-95218095D01*
X113966666Y-95408571D01*
X115109523Y-97027619D02*
X115204761Y-96837142D01*
X115204761Y-96456190D01*
X115109523Y-96265714D01*
X114919047Y-96170476D01*
X114157142Y-96170476D01*
X113966666Y-96265714D01*
X113871428Y-96456190D01*
X113871428Y-96837142D01*
X113966666Y-97027619D01*
X114157142Y-97122857D01*
X114347619Y-97122857D01*
X114538095Y-96170476D01*
X115204761Y-98932380D02*
X115204761Y-97979999D01*
X113204761Y-97979999D01*
X115204761Y-100456190D02*
X114157142Y-100456190D01*
X113966666Y-100360952D01*
X113871428Y-100170476D01*
X113871428Y-99789523D01*
X113966666Y-99599047D01*
X115109523Y-100456190D02*
X115204761Y-100265714D01*
X115204761Y-99789523D01*
X115109523Y-99599047D01*
X114919047Y-99503809D01*
X114728571Y-99503809D01*
X114538095Y-99599047D01*
X114442857Y-99789523D01*
X114442857Y-100265714D01*
X114347619Y-100456190D01*
X115204761Y-101408571D02*
X113204761Y-101408571D01*
X113966666Y-101408571D02*
X113871428Y-101599047D01*
X113871428Y-101979999D01*
X113966666Y-102170476D01*
X114061904Y-102265714D01*
X114252380Y-102360952D01*
X114823809Y-102360952D01*
X115014285Y-102265714D01*
X115109523Y-102170476D01*
X115204761Y-101979999D01*
X115204761Y-101599047D01*
X115109523Y-101408571D01*
X115204761Y-106265714D02*
X113871428Y-106265714D01*
X114252380Y-106265714D02*
X114061904Y-106360952D01*
X113966666Y-106456190D01*
X113871428Y-106646666D01*
X113871428Y-106837142D01*
X115109523Y-108265714D02*
X115204761Y-108075238D01*
X115204761Y-107694285D01*
X115109523Y-107503809D01*
X114919047Y-107408571D01*
X114157142Y-107408571D01*
X113966666Y-107503809D01*
X113871428Y-107694285D01*
X113871428Y-108075238D01*
X113966666Y-108265714D01*
X114157142Y-108360952D01*
X114347619Y-108360952D01*
X114538095Y-107408571D01*
X113871428Y-109027619D02*
X115204761Y-109503809D01*
X113871428Y-109979999D01*
X115204761Y-113313333D02*
X115204761Y-112170476D01*
X115204761Y-112741904D02*
X113204761Y-112741904D01*
X113490476Y-112551428D01*
X113680952Y-112360952D01*
X113776190Y-112170476D01*
X115014285Y-114170476D02*
X115109523Y-114265714D01*
X115204761Y-114170476D01*
X115109523Y-114075238D01*
X115014285Y-114170476D01*
X115204761Y-114170476D01*
X113204761Y-115503809D02*
X113204761Y-115694285D01*
X113300000Y-115884761D01*
X113395238Y-115979999D01*
X113585714Y-116075238D01*
X113966666Y-116170476D01*
X114442857Y-116170476D01*
X114823809Y-116075238D01*
X115014285Y-115979999D01*
X115109523Y-115884761D01*
X115204761Y-115694285D01*
X115204761Y-115503809D01*
X115109523Y-115313333D01*
X115014285Y-115218095D01*
X114823809Y-115122857D01*
X114442857Y-115027619D01*
X113966666Y-115027619D01*
X113585714Y-115122857D01*
X113395238Y-115218095D01*
X113300000Y-115313333D01*
X113204761Y-115503809D01*
D11*
X120590000Y-75505000D02*
X123250000Y-75505000D01*
X120590000Y-93345000D02*
X120590000Y-75505000D01*
X123250000Y-93345000D02*
X123250000Y-75505000D01*
X120590000Y-93345000D02*
X123250000Y-93345000D01*
X120590000Y-94615000D02*
X120590000Y-95945000D01*
X120590000Y-95945000D02*
X121920000Y-95945000D01*
M02*
