G04 #@! TF.GenerationSoftware,KiCad,Pcbnew,5.1.5+dfsg1-2*
G04 #@! TF.CreationDate,2020-03-01T10:33:55+10:30*
G04 #@! TF.ProjectId,megasheild,6d656761-7368-4656-996c-642e6b696361,rev?*
G04 #@! TF.SameCoordinates,Original*
G04 #@! TF.FileFunction,Legend,Top*
G04 #@! TF.FilePolarity,Positive*
%FSLAX46Y46*%
G04 Gerber Fmt 4.6, Leading zero omitted, Abs format (unit mm)*
G04 Created by KiCad (PCBNEW 5.1.5+dfsg1-2) date 2020-03-01 10:33:55*
%MOMM*%
%LPD*%
G04 APERTURE LIST*
%ADD10C,0.150000*%
%ADD11C,0.010000*%
%ADD12C,0.120000*%
G04 APERTURE END LIST*
D10*
X125374285Y-79418571D02*
X125374285Y-77918571D01*
X125731428Y-77918571D01*
X125945714Y-77990000D01*
X126088571Y-78132857D01*
X126160000Y-78275714D01*
X126231428Y-78561428D01*
X126231428Y-78775714D01*
X126160000Y-79061428D01*
X126088571Y-79204285D01*
X125945714Y-79347142D01*
X125731428Y-79418571D01*
X125374285Y-79418571D01*
X127445714Y-79347142D02*
X127302857Y-79418571D01*
X127017142Y-79418571D01*
X126874285Y-79347142D01*
X126802857Y-79204285D01*
X126802857Y-78632857D01*
X126874285Y-78490000D01*
X127017142Y-78418571D01*
X127302857Y-78418571D01*
X127445714Y-78490000D01*
X127517142Y-78632857D01*
X127517142Y-78775714D01*
X126802857Y-78918571D01*
X128088571Y-79347142D02*
X128231428Y-79418571D01*
X128517142Y-79418571D01*
X128660000Y-79347142D01*
X128731428Y-79204285D01*
X128731428Y-79132857D01*
X128660000Y-78990000D01*
X128517142Y-78918571D01*
X128302857Y-78918571D01*
X128160000Y-78847142D01*
X128088571Y-78704285D01*
X128088571Y-78632857D01*
X128160000Y-78490000D01*
X128302857Y-78418571D01*
X128517142Y-78418571D01*
X128660000Y-78490000D01*
X129374285Y-79418571D02*
X129374285Y-78418571D01*
X129374285Y-77918571D02*
X129302857Y-77990000D01*
X129374285Y-78061428D01*
X129445714Y-77990000D01*
X129374285Y-77918571D01*
X129374285Y-78061428D01*
X130731428Y-78418571D02*
X130731428Y-79632857D01*
X130660000Y-79775714D01*
X130588571Y-79847142D01*
X130445714Y-79918571D01*
X130231428Y-79918571D01*
X130088571Y-79847142D01*
X130731428Y-79347142D02*
X130588571Y-79418571D01*
X130302857Y-79418571D01*
X130160000Y-79347142D01*
X130088571Y-79275714D01*
X130017142Y-79132857D01*
X130017142Y-78704285D01*
X130088571Y-78561428D01*
X130160000Y-78490000D01*
X130302857Y-78418571D01*
X130588571Y-78418571D01*
X130731428Y-78490000D01*
X131445714Y-78418571D02*
X131445714Y-79418571D01*
X131445714Y-78561428D02*
X131517142Y-78490000D01*
X131660000Y-78418571D01*
X131874285Y-78418571D01*
X132017142Y-78490000D01*
X132088571Y-78632857D01*
X132088571Y-79418571D01*
X133374285Y-79347142D02*
X133231428Y-79418571D01*
X132945714Y-79418571D01*
X132802857Y-79347142D01*
X132731428Y-79204285D01*
X132731428Y-78632857D01*
X132802857Y-78490000D01*
X132945714Y-78418571D01*
X133231428Y-78418571D01*
X133374285Y-78490000D01*
X133445714Y-78632857D01*
X133445714Y-78775714D01*
X132731428Y-78918571D01*
X134731428Y-79418571D02*
X134731428Y-77918571D01*
X134731428Y-79347142D02*
X134588571Y-79418571D01*
X134302857Y-79418571D01*
X134160000Y-79347142D01*
X134088571Y-79275714D01*
X134017142Y-79132857D01*
X134017142Y-78704285D01*
X134088571Y-78561428D01*
X134160000Y-78490000D01*
X134302857Y-78418571D01*
X134588571Y-78418571D01*
X134731428Y-78490000D01*
X136588571Y-79418571D02*
X136588571Y-78418571D01*
X136588571Y-77918571D02*
X136517142Y-77990000D01*
X136588571Y-78061428D01*
X136660000Y-77990000D01*
X136588571Y-77918571D01*
X136588571Y-78061428D01*
X137302857Y-78418571D02*
X137302857Y-79418571D01*
X137302857Y-78561428D02*
X137374285Y-78490000D01*
X137517142Y-78418571D01*
X137731428Y-78418571D01*
X137874285Y-78490000D01*
X137945714Y-78632857D01*
X137945714Y-79418571D01*
X139731428Y-78990000D02*
X140445714Y-78990000D01*
X139588571Y-79418571D02*
X140088571Y-77918571D01*
X140588571Y-79418571D01*
X141731428Y-78418571D02*
X141731428Y-79418571D01*
X141088571Y-78418571D02*
X141088571Y-79204285D01*
X141160000Y-79347142D01*
X141302857Y-79418571D01*
X141517142Y-79418571D01*
X141660000Y-79347142D01*
X141731428Y-79275714D01*
X142374285Y-79347142D02*
X142517142Y-79418571D01*
X142802857Y-79418571D01*
X142945714Y-79347142D01*
X143017142Y-79204285D01*
X143017142Y-79132857D01*
X142945714Y-78990000D01*
X142802857Y-78918571D01*
X142588571Y-78918571D01*
X142445714Y-78847142D01*
X142374285Y-78704285D01*
X142374285Y-78632857D01*
X142445714Y-78490000D01*
X142588571Y-78418571D01*
X142802857Y-78418571D01*
X142945714Y-78490000D01*
X143445714Y-78418571D02*
X144017142Y-78418571D01*
X143660000Y-77918571D02*
X143660000Y-79204285D01*
X143731428Y-79347142D01*
X143874285Y-79418571D01*
X144017142Y-79418571D01*
X144517142Y-79418571D02*
X144517142Y-78418571D01*
X144517142Y-78704285D02*
X144588571Y-78561428D01*
X144660000Y-78490000D01*
X144802857Y-78418571D01*
X144945714Y-78418571D01*
X146088571Y-79418571D02*
X146088571Y-78632857D01*
X146017142Y-78490000D01*
X145874285Y-78418571D01*
X145588571Y-78418571D01*
X145445714Y-78490000D01*
X146088571Y-79347142D02*
X145945714Y-79418571D01*
X145588571Y-79418571D01*
X145445714Y-79347142D01*
X145374285Y-79204285D01*
X145374285Y-79061428D01*
X145445714Y-78918571D01*
X145588571Y-78847142D01*
X145945714Y-78847142D01*
X146088571Y-78775714D01*
X147017142Y-79418571D02*
X146874285Y-79347142D01*
X146802857Y-79204285D01*
X146802857Y-77918571D01*
X147588571Y-79418571D02*
X147588571Y-78418571D01*
X147588571Y-77918571D02*
X147517142Y-77990000D01*
X147588571Y-78061428D01*
X147660000Y-77990000D01*
X147588571Y-77918571D01*
X147588571Y-78061428D01*
X148945714Y-79418571D02*
X148945714Y-78632857D01*
X148874285Y-78490000D01*
X148731428Y-78418571D01*
X148445714Y-78418571D01*
X148302857Y-78490000D01*
X148945714Y-79347142D02*
X148802857Y-79418571D01*
X148445714Y-79418571D01*
X148302857Y-79347142D01*
X148231428Y-79204285D01*
X148231428Y-79061428D01*
X148302857Y-78918571D01*
X148445714Y-78847142D01*
X148802857Y-78847142D01*
X148945714Y-78775714D01*
X131770380Y-116300285D02*
X131770380Y-116871714D01*
X131770380Y-116586000D02*
X130770380Y-116586000D01*
X130913238Y-116681238D01*
X131008476Y-116776476D01*
X131056095Y-116871714D01*
D11*
G36*
X177316396Y-81678164D02*
G01*
X177496014Y-81835110D01*
X177711406Y-82057189D01*
X177738607Y-82087448D01*
X178156424Y-82556229D01*
X178425440Y-82404948D01*
X178608258Y-82311300D01*
X178716930Y-82311682D01*
X178824341Y-82416128D01*
X178864074Y-82465333D01*
X179004184Y-82667102D01*
X179167748Y-82939577D01*
X179243772Y-83079167D01*
X179376160Y-83303818D01*
X179491036Y-83449790D01*
X179541413Y-83481333D01*
X179644801Y-83558598D01*
X179742989Y-83761234D01*
X179822053Y-84045504D01*
X179868068Y-84367670D01*
X179874333Y-84527072D01*
X179883988Y-84800465D01*
X179922873Y-84949321D01*
X180005869Y-85017828D01*
X180043667Y-85029865D01*
X180166645Y-85121364D01*
X180209603Y-85319655D01*
X180172435Y-85638269D01*
X180055037Y-86090737D01*
X180034960Y-86156587D01*
X179815304Y-86679977D01*
X179528693Y-87057372D01*
X179182518Y-87284015D01*
X178784173Y-87355145D01*
X178341049Y-87266003D01*
X178322684Y-87259108D01*
X178093903Y-87176451D01*
X177934902Y-87127625D01*
X177903003Y-87122000D01*
X177874580Y-87199906D01*
X177853288Y-87406653D01*
X177842825Y-87701784D01*
X177842333Y-87786211D01*
X177834394Y-88145745D01*
X177805340Y-88377267D01*
X177747318Y-88521580D01*
X177687500Y-88590544D01*
X177468014Y-88698488D01*
X177182264Y-88730373D01*
X176904183Y-88687315D01*
X176712455Y-88575833D01*
X176629009Y-88422746D01*
X176584544Y-88171878D01*
X176572333Y-87818830D01*
X176562781Y-87516020D01*
X176547521Y-87376000D01*
X176826333Y-87376000D01*
X176826333Y-87827555D01*
X176836869Y-88091985D01*
X176863893Y-88282815D01*
X176886807Y-88339585D01*
X177004469Y-88373518D01*
X177213357Y-88377267D01*
X177246640Y-88374863D01*
X177546000Y-88349667D01*
X177571392Y-87862833D01*
X177596784Y-87376000D01*
X176826333Y-87376000D01*
X176547521Y-87376000D01*
X176537646Y-87285395D01*
X176502207Y-87173780D01*
X176499348Y-87171552D01*
X176382263Y-87172415D01*
X176174360Y-87228000D01*
X176081907Y-87261751D01*
X175644818Y-87358405D01*
X175248192Y-87295196D01*
X174899504Y-87078345D01*
X174606231Y-86714078D01*
X174375849Y-86208620D01*
X174247532Y-85734419D01*
X174200368Y-85412841D01*
X174484002Y-85412841D01*
X174487710Y-85490254D01*
X174488274Y-85492167D01*
X174539452Y-85683017D01*
X174590660Y-85894333D01*
X174708531Y-86250252D01*
X174880623Y-86585161D01*
X175073331Y-86838429D01*
X175150705Y-86904738D01*
X175418089Y-87009818D01*
X175744517Y-87031229D01*
X176039420Y-86964604D01*
X176070976Y-86949112D01*
X176183105Y-86855468D01*
X176161329Y-86723969D01*
X176139589Y-86681082D01*
X176088327Y-86477289D01*
X176078188Y-86175066D01*
X176319128Y-86175066D01*
X176389845Y-86512055D01*
X176579665Y-86780264D01*
X176850645Y-86962990D01*
X177164838Y-87043530D01*
X177484301Y-87005181D01*
X177762077Y-86836706D01*
X178226697Y-86836706D01*
X178313543Y-86936539D01*
X178328607Y-86945572D01*
X178607092Y-87027263D01*
X178936699Y-87015308D01*
X179232117Y-86916360D01*
X179302755Y-86869585D01*
X179513547Y-86619227D01*
X179701866Y-86230205D01*
X179853286Y-85732994D01*
X179865239Y-85681190D01*
X179941000Y-85344000D01*
X179336167Y-85352439D01*
X179000585Y-85365022D01*
X178706191Y-85389822D01*
X178519667Y-85420838D01*
X178403444Y-85465572D01*
X178343446Y-85544831D01*
X178325614Y-85702842D01*
X178335890Y-85983833D01*
X178336602Y-85996738D01*
X178337255Y-86303383D01*
X178309328Y-86562318D01*
X178272543Y-86685818D01*
X178226697Y-86836706D01*
X177762077Y-86836706D01*
X177771090Y-86831240D01*
X177783083Y-86819492D01*
X177996591Y-86505487D01*
X178050168Y-86148571D01*
X177943396Y-85746388D01*
X177675862Y-85296578D01*
X177469299Y-85038702D01*
X177210395Y-84739268D01*
X177652878Y-84739268D01*
X177838038Y-84999301D01*
X177987573Y-85186206D01*
X178116181Y-85247903D01*
X178290790Y-85203944D01*
X178389899Y-85160522D01*
X178521303Y-85073915D01*
X178561799Y-84951111D01*
X178510853Y-84756127D01*
X178379766Y-84476167D01*
X178326008Y-84387937D01*
X178715439Y-84387937D01*
X178761619Y-84592157D01*
X178778799Y-84650410D01*
X178856509Y-84872092D01*
X178948801Y-84974815D01*
X179110750Y-85004039D01*
X179208788Y-85005333D01*
X179429572Y-84987708D01*
X179539585Y-84913525D01*
X179585705Y-84793110D01*
X179602735Y-84579610D01*
X179583147Y-84300312D01*
X179536382Y-84037011D01*
X179480842Y-83884455D01*
X179386353Y-83876618D01*
X179200408Y-83949066D01*
X178967840Y-84081592D01*
X178828897Y-84178291D01*
X178735739Y-84270021D01*
X178715439Y-84387937D01*
X178326008Y-84387937D01*
X178275129Y-84304434D01*
X178173969Y-84261105D01*
X178035965Y-84347429D01*
X177890446Y-84491301D01*
X177652878Y-84739268D01*
X177210395Y-84739268D01*
X177184223Y-84709000D01*
X177002844Y-84920667D01*
X176799921Y-85189276D01*
X176604298Y-85501217D01*
X176442380Y-85808047D01*
X176340569Y-86061322D01*
X176319128Y-86175066D01*
X176078188Y-86175066D01*
X176077952Y-86168056D01*
X176087669Y-86012620D01*
X176108487Y-85737043D01*
X176095310Y-85582030D01*
X176030406Y-85499593D01*
X175896043Y-85441744D01*
X175873855Y-85433982D01*
X175654633Y-85387337D01*
X175338588Y-85354815D01*
X175029993Y-85344000D01*
X174722417Y-85348665D01*
X174551329Y-85368628D01*
X174484002Y-85412841D01*
X174200368Y-85412841D01*
X174192945Y-85362231D01*
X174217223Y-85127894D01*
X174303773Y-85038147D01*
X175833141Y-85038147D01*
X175926272Y-85139034D01*
X175991808Y-85168689D01*
X176216617Y-85239955D01*
X176367792Y-85211841D01*
X176514714Y-85063617D01*
X176564741Y-84997494D01*
X176758327Y-84735655D01*
X176522490Y-84489494D01*
X176358097Y-84333755D01*
X176238778Y-84248691D01*
X176219778Y-84243333D01*
X176118112Y-84314809D01*
X175997578Y-84492773D01*
X175891211Y-84722532D01*
X175849375Y-84856556D01*
X175833141Y-85038147D01*
X174303773Y-85038147D01*
X174323284Y-85017916D01*
X174405259Y-85005333D01*
X174468340Y-84925212D01*
X174504139Y-84700184D01*
X174509947Y-84555966D01*
X174512466Y-84522692D01*
X174797993Y-84522692D01*
X174801946Y-84769391D01*
X174837772Y-84930687D01*
X174850778Y-84948889D01*
X174965980Y-84986470D01*
X175174880Y-85004941D01*
X175211060Y-85005333D01*
X175414846Y-84988425D01*
X175526679Y-84905644D01*
X175607626Y-84708905D01*
X175614268Y-84687854D01*
X175656798Y-84422561D01*
X175580288Y-84215286D01*
X175365664Y-84031753D01*
X175311983Y-84001398D01*
X176467545Y-84001398D01*
X176699613Y-84243625D01*
X176867985Y-84395861D01*
X176990580Y-84430222D01*
X177083799Y-84390853D01*
X177248763Y-84340401D01*
X177355434Y-84395045D01*
X177461271Y-84435820D01*
X177590301Y-84365171D01*
X177700043Y-84259292D01*
X177841364Y-84098420D01*
X177874626Y-83987247D01*
X177813118Y-83857367D01*
X177786083Y-83816340D01*
X177628898Y-83606077D01*
X177440035Y-83383700D01*
X177432570Y-83375564D01*
X177398730Y-83338835D01*
X177845150Y-83338835D01*
X177911485Y-83487698D01*
X178069524Y-83675719D01*
X178267308Y-83852425D01*
X178452875Y-83967341D01*
X178509673Y-83984354D01*
X178595274Y-83947982D01*
X178771330Y-83850798D01*
X178848340Y-83805297D01*
X179044678Y-83686315D01*
X179169013Y-83609049D01*
X179185704Y-83597870D01*
X179158890Y-83523702D01*
X179069858Y-83352457D01*
X178945506Y-83131048D01*
X178812732Y-82906383D01*
X178698434Y-82725375D01*
X178638691Y-82643872D01*
X178559476Y-82668640D01*
X178403762Y-82778534D01*
X178213036Y-82937220D01*
X178028787Y-83108365D01*
X177892503Y-83255633D01*
X177845150Y-83338835D01*
X177398730Y-83338835D01*
X177218109Y-83142796D01*
X177013944Y-83333231D01*
X176811968Y-83546518D01*
X176638661Y-83762532D01*
X176467545Y-84001398D01*
X175311983Y-84001398D01*
X175195639Y-83935609D01*
X175028584Y-83862811D01*
X174942230Y-83895300D01*
X174877939Y-84034456D01*
X174823971Y-84255933D01*
X174797993Y-84522692D01*
X174512466Y-84522692D01*
X174536526Y-84204950D01*
X174598227Y-83884387D01*
X174683293Y-83634740D01*
X174775707Y-83502561D01*
X175259894Y-83502561D01*
X175261090Y-83609677D01*
X175314674Y-83657732D01*
X175471319Y-83760621D01*
X175598667Y-83853844D01*
X175773563Y-83959635D01*
X175927387Y-83961201D01*
X176105928Y-83847433D01*
X176273178Y-83690178D01*
X176446060Y-83502861D01*
X176554106Y-83358017D01*
X176572333Y-83313056D01*
X176510028Y-83223397D01*
X176348829Y-83072004D01*
X176181153Y-82936402D01*
X175999332Y-82797571D01*
X176553463Y-82797571D01*
X176614744Y-82888608D01*
X176626638Y-82901894D01*
X176778200Y-83035658D01*
X176896014Y-83028313D01*
X176995667Y-82931000D01*
X177148490Y-82816070D01*
X177315457Y-82852781D01*
X177431912Y-82942685D01*
X177571986Y-83032412D01*
X177693458Y-82990799D01*
X177713745Y-82974651D01*
X177817033Y-82851522D01*
X177818522Y-82711108D01*
X177708948Y-82520663D01*
X177521453Y-82294857D01*
X177200572Y-81933270D01*
X176842968Y-82339530D01*
X176652149Y-82563136D01*
X176560789Y-82702448D01*
X176553463Y-82797571D01*
X175999332Y-82797571D01*
X175789973Y-82637714D01*
X175642791Y-82826690D01*
X175501678Y-83034688D01*
X175357544Y-83284929D01*
X175347812Y-83303695D01*
X175259894Y-83502561D01*
X174775707Y-83502561D01*
X174779966Y-83496470D01*
X174822211Y-83481333D01*
X174916991Y-83412593D01*
X175045543Y-83237935D01*
X175112766Y-83121500D01*
X175278350Y-82838734D01*
X175458379Y-82572082D01*
X175507683Y-82507667D01*
X175711456Y-82253667D01*
X176236084Y-82561001D01*
X176666704Y-82089834D01*
X176888457Y-81862476D01*
X177078097Y-81695323D01*
X177199142Y-81620069D01*
X177209057Y-81618667D01*
X177316396Y-81678164D01*
G37*
X177316396Y-81678164D02*
X177496014Y-81835110D01*
X177711406Y-82057189D01*
X177738607Y-82087448D01*
X178156424Y-82556229D01*
X178425440Y-82404948D01*
X178608258Y-82311300D01*
X178716930Y-82311682D01*
X178824341Y-82416128D01*
X178864074Y-82465333D01*
X179004184Y-82667102D01*
X179167748Y-82939577D01*
X179243772Y-83079167D01*
X179376160Y-83303818D01*
X179491036Y-83449790D01*
X179541413Y-83481333D01*
X179644801Y-83558598D01*
X179742989Y-83761234D01*
X179822053Y-84045504D01*
X179868068Y-84367670D01*
X179874333Y-84527072D01*
X179883988Y-84800465D01*
X179922873Y-84949321D01*
X180005869Y-85017828D01*
X180043667Y-85029865D01*
X180166645Y-85121364D01*
X180209603Y-85319655D01*
X180172435Y-85638269D01*
X180055037Y-86090737D01*
X180034960Y-86156587D01*
X179815304Y-86679977D01*
X179528693Y-87057372D01*
X179182518Y-87284015D01*
X178784173Y-87355145D01*
X178341049Y-87266003D01*
X178322684Y-87259108D01*
X178093903Y-87176451D01*
X177934902Y-87127625D01*
X177903003Y-87122000D01*
X177874580Y-87199906D01*
X177853288Y-87406653D01*
X177842825Y-87701784D01*
X177842333Y-87786211D01*
X177834394Y-88145745D01*
X177805340Y-88377267D01*
X177747318Y-88521580D01*
X177687500Y-88590544D01*
X177468014Y-88698488D01*
X177182264Y-88730373D01*
X176904183Y-88687315D01*
X176712455Y-88575833D01*
X176629009Y-88422746D01*
X176584544Y-88171878D01*
X176572333Y-87818830D01*
X176562781Y-87516020D01*
X176547521Y-87376000D01*
X176826333Y-87376000D01*
X176826333Y-87827555D01*
X176836869Y-88091985D01*
X176863893Y-88282815D01*
X176886807Y-88339585D01*
X177004469Y-88373518D01*
X177213357Y-88377267D01*
X177246640Y-88374863D01*
X177546000Y-88349667D01*
X177571392Y-87862833D01*
X177596784Y-87376000D01*
X176826333Y-87376000D01*
X176547521Y-87376000D01*
X176537646Y-87285395D01*
X176502207Y-87173780D01*
X176499348Y-87171552D01*
X176382263Y-87172415D01*
X176174360Y-87228000D01*
X176081907Y-87261751D01*
X175644818Y-87358405D01*
X175248192Y-87295196D01*
X174899504Y-87078345D01*
X174606231Y-86714078D01*
X174375849Y-86208620D01*
X174247532Y-85734419D01*
X174200368Y-85412841D01*
X174484002Y-85412841D01*
X174487710Y-85490254D01*
X174488274Y-85492167D01*
X174539452Y-85683017D01*
X174590660Y-85894333D01*
X174708531Y-86250252D01*
X174880623Y-86585161D01*
X175073331Y-86838429D01*
X175150705Y-86904738D01*
X175418089Y-87009818D01*
X175744517Y-87031229D01*
X176039420Y-86964604D01*
X176070976Y-86949112D01*
X176183105Y-86855468D01*
X176161329Y-86723969D01*
X176139589Y-86681082D01*
X176088327Y-86477289D01*
X176078188Y-86175066D01*
X176319128Y-86175066D01*
X176389845Y-86512055D01*
X176579665Y-86780264D01*
X176850645Y-86962990D01*
X177164838Y-87043530D01*
X177484301Y-87005181D01*
X177762077Y-86836706D01*
X178226697Y-86836706D01*
X178313543Y-86936539D01*
X178328607Y-86945572D01*
X178607092Y-87027263D01*
X178936699Y-87015308D01*
X179232117Y-86916360D01*
X179302755Y-86869585D01*
X179513547Y-86619227D01*
X179701866Y-86230205D01*
X179853286Y-85732994D01*
X179865239Y-85681190D01*
X179941000Y-85344000D01*
X179336167Y-85352439D01*
X179000585Y-85365022D01*
X178706191Y-85389822D01*
X178519667Y-85420838D01*
X178403444Y-85465572D01*
X178343446Y-85544831D01*
X178325614Y-85702842D01*
X178335890Y-85983833D01*
X178336602Y-85996738D01*
X178337255Y-86303383D01*
X178309328Y-86562318D01*
X178272543Y-86685818D01*
X178226697Y-86836706D01*
X177762077Y-86836706D01*
X177771090Y-86831240D01*
X177783083Y-86819492D01*
X177996591Y-86505487D01*
X178050168Y-86148571D01*
X177943396Y-85746388D01*
X177675862Y-85296578D01*
X177469299Y-85038702D01*
X177210395Y-84739268D01*
X177652878Y-84739268D01*
X177838038Y-84999301D01*
X177987573Y-85186206D01*
X178116181Y-85247903D01*
X178290790Y-85203944D01*
X178389899Y-85160522D01*
X178521303Y-85073915D01*
X178561799Y-84951111D01*
X178510853Y-84756127D01*
X178379766Y-84476167D01*
X178326008Y-84387937D01*
X178715439Y-84387937D01*
X178761619Y-84592157D01*
X178778799Y-84650410D01*
X178856509Y-84872092D01*
X178948801Y-84974815D01*
X179110750Y-85004039D01*
X179208788Y-85005333D01*
X179429572Y-84987708D01*
X179539585Y-84913525D01*
X179585705Y-84793110D01*
X179602735Y-84579610D01*
X179583147Y-84300312D01*
X179536382Y-84037011D01*
X179480842Y-83884455D01*
X179386353Y-83876618D01*
X179200408Y-83949066D01*
X178967840Y-84081592D01*
X178828897Y-84178291D01*
X178735739Y-84270021D01*
X178715439Y-84387937D01*
X178326008Y-84387937D01*
X178275129Y-84304434D01*
X178173969Y-84261105D01*
X178035965Y-84347429D01*
X177890446Y-84491301D01*
X177652878Y-84739268D01*
X177210395Y-84739268D01*
X177184223Y-84709000D01*
X177002844Y-84920667D01*
X176799921Y-85189276D01*
X176604298Y-85501217D01*
X176442380Y-85808047D01*
X176340569Y-86061322D01*
X176319128Y-86175066D01*
X176078188Y-86175066D01*
X176077952Y-86168056D01*
X176087669Y-86012620D01*
X176108487Y-85737043D01*
X176095310Y-85582030D01*
X176030406Y-85499593D01*
X175896043Y-85441744D01*
X175873855Y-85433982D01*
X175654633Y-85387337D01*
X175338588Y-85354815D01*
X175029993Y-85344000D01*
X174722417Y-85348665D01*
X174551329Y-85368628D01*
X174484002Y-85412841D01*
X174200368Y-85412841D01*
X174192945Y-85362231D01*
X174217223Y-85127894D01*
X174303773Y-85038147D01*
X175833141Y-85038147D01*
X175926272Y-85139034D01*
X175991808Y-85168689D01*
X176216617Y-85239955D01*
X176367792Y-85211841D01*
X176514714Y-85063617D01*
X176564741Y-84997494D01*
X176758327Y-84735655D01*
X176522490Y-84489494D01*
X176358097Y-84333755D01*
X176238778Y-84248691D01*
X176219778Y-84243333D01*
X176118112Y-84314809D01*
X175997578Y-84492773D01*
X175891211Y-84722532D01*
X175849375Y-84856556D01*
X175833141Y-85038147D01*
X174303773Y-85038147D01*
X174323284Y-85017916D01*
X174405259Y-85005333D01*
X174468340Y-84925212D01*
X174504139Y-84700184D01*
X174509947Y-84555966D01*
X174512466Y-84522692D01*
X174797993Y-84522692D01*
X174801946Y-84769391D01*
X174837772Y-84930687D01*
X174850778Y-84948889D01*
X174965980Y-84986470D01*
X175174880Y-85004941D01*
X175211060Y-85005333D01*
X175414846Y-84988425D01*
X175526679Y-84905644D01*
X175607626Y-84708905D01*
X175614268Y-84687854D01*
X175656798Y-84422561D01*
X175580288Y-84215286D01*
X175365664Y-84031753D01*
X175311983Y-84001398D01*
X176467545Y-84001398D01*
X176699613Y-84243625D01*
X176867985Y-84395861D01*
X176990580Y-84430222D01*
X177083799Y-84390853D01*
X177248763Y-84340401D01*
X177355434Y-84395045D01*
X177461271Y-84435820D01*
X177590301Y-84365171D01*
X177700043Y-84259292D01*
X177841364Y-84098420D01*
X177874626Y-83987247D01*
X177813118Y-83857367D01*
X177786083Y-83816340D01*
X177628898Y-83606077D01*
X177440035Y-83383700D01*
X177432570Y-83375564D01*
X177398730Y-83338835D01*
X177845150Y-83338835D01*
X177911485Y-83487698D01*
X178069524Y-83675719D01*
X178267308Y-83852425D01*
X178452875Y-83967341D01*
X178509673Y-83984354D01*
X178595274Y-83947982D01*
X178771330Y-83850798D01*
X178848340Y-83805297D01*
X179044678Y-83686315D01*
X179169013Y-83609049D01*
X179185704Y-83597870D01*
X179158890Y-83523702D01*
X179069858Y-83352457D01*
X178945506Y-83131048D01*
X178812732Y-82906383D01*
X178698434Y-82725375D01*
X178638691Y-82643872D01*
X178559476Y-82668640D01*
X178403762Y-82778534D01*
X178213036Y-82937220D01*
X178028787Y-83108365D01*
X177892503Y-83255633D01*
X177845150Y-83338835D01*
X177398730Y-83338835D01*
X177218109Y-83142796D01*
X177013944Y-83333231D01*
X176811968Y-83546518D01*
X176638661Y-83762532D01*
X176467545Y-84001398D01*
X175311983Y-84001398D01*
X175195639Y-83935609D01*
X175028584Y-83862811D01*
X174942230Y-83895300D01*
X174877939Y-84034456D01*
X174823971Y-84255933D01*
X174797993Y-84522692D01*
X174512466Y-84522692D01*
X174536526Y-84204950D01*
X174598227Y-83884387D01*
X174683293Y-83634740D01*
X174775707Y-83502561D01*
X175259894Y-83502561D01*
X175261090Y-83609677D01*
X175314674Y-83657732D01*
X175471319Y-83760621D01*
X175598667Y-83853844D01*
X175773563Y-83959635D01*
X175927387Y-83961201D01*
X176105928Y-83847433D01*
X176273178Y-83690178D01*
X176446060Y-83502861D01*
X176554106Y-83358017D01*
X176572333Y-83313056D01*
X176510028Y-83223397D01*
X176348829Y-83072004D01*
X176181153Y-82936402D01*
X175999332Y-82797571D01*
X176553463Y-82797571D01*
X176614744Y-82888608D01*
X176626638Y-82901894D01*
X176778200Y-83035658D01*
X176896014Y-83028313D01*
X176995667Y-82931000D01*
X177148490Y-82816070D01*
X177315457Y-82852781D01*
X177431912Y-82942685D01*
X177571986Y-83032412D01*
X177693458Y-82990799D01*
X177713745Y-82974651D01*
X177817033Y-82851522D01*
X177818522Y-82711108D01*
X177708948Y-82520663D01*
X177521453Y-82294857D01*
X177200572Y-81933270D01*
X176842968Y-82339530D01*
X176652149Y-82563136D01*
X176560789Y-82702448D01*
X176553463Y-82797571D01*
X175999332Y-82797571D01*
X175789973Y-82637714D01*
X175642791Y-82826690D01*
X175501678Y-83034688D01*
X175357544Y-83284929D01*
X175347812Y-83303695D01*
X175259894Y-83502561D01*
X174775707Y-83502561D01*
X174779966Y-83496470D01*
X174822211Y-83481333D01*
X174916991Y-83412593D01*
X175045543Y-83237935D01*
X175112766Y-83121500D01*
X175278350Y-82838734D01*
X175458379Y-82572082D01*
X175507683Y-82507667D01*
X175711456Y-82253667D01*
X176236084Y-82561001D01*
X176666704Y-82089834D01*
X176888457Y-81862476D01*
X177078097Y-81695323D01*
X177199142Y-81620069D01*
X177209057Y-81618667D01*
X177316396Y-81678164D01*
D12*
X133080000Y-83125000D02*
G75*
G02X131080000Y-83125000I-1000000J0D01*
G01*
X131080000Y-83125000D02*
X129430000Y-83125000D01*
X129430000Y-83125000D02*
X129430000Y-103565000D01*
X129430000Y-103565000D02*
X134730000Y-103565000D01*
X134730000Y-103565000D02*
X134730000Y-83125000D01*
X134730000Y-83125000D02*
X133080000Y-83125000D01*
D10*
X201168000Y-115316000D02*
X201168000Y-69596000D01*
X196088000Y-69596000D02*
X196088000Y-112776000D01*
X201168000Y-69596000D02*
X196088000Y-69596000D01*
X201168000Y-115316000D02*
X198628000Y-115316000D01*
X195808000Y-114046000D02*
X195808000Y-115596000D01*
X198628000Y-115316000D02*
X198628000Y-112776000D01*
X198628000Y-112776000D02*
X196088000Y-112776000D01*
X195808000Y-115596000D02*
X197358000Y-115596000D01*
X132588000Y-120396000D02*
X150368000Y-120396000D01*
X150368000Y-120396000D02*
X150368000Y-117856000D01*
X150368000Y-117856000D02*
X132588000Y-117856000D01*
X129768000Y-120676000D02*
X131318000Y-120676000D01*
X132588000Y-120396000D02*
X132588000Y-117856000D01*
X131318000Y-117576000D02*
X129768000Y-117576000D01*
X129768000Y-117576000D02*
X129768000Y-120676000D01*
X155448000Y-120396000D02*
X173228000Y-120396000D01*
X173228000Y-120396000D02*
X173228000Y-117856000D01*
X173228000Y-117856000D02*
X155448000Y-117856000D01*
X152628000Y-120676000D02*
X154178000Y-120676000D01*
X155448000Y-120396000D02*
X155448000Y-117856000D01*
X154178000Y-117576000D02*
X152628000Y-117576000D01*
X152628000Y-117576000D02*
X152628000Y-120676000D01*
X178308000Y-120396000D02*
X196088000Y-120396000D01*
X196088000Y-120396000D02*
X196088000Y-117856000D01*
X196088000Y-117856000D02*
X178308000Y-117856000D01*
X175488000Y-120676000D02*
X177038000Y-120676000D01*
X178308000Y-120396000D02*
X178308000Y-117856000D01*
X177038000Y-117576000D02*
X175488000Y-117576000D01*
X175488000Y-117576000D02*
X175488000Y-120676000D01*
X123444000Y-72136000D02*
X146304000Y-72136000D01*
X146304000Y-72136000D02*
X146304000Y-69596000D01*
X146304000Y-69596000D02*
X123444000Y-69596000D01*
X120624000Y-72416000D02*
X122174000Y-72416000D01*
X123444000Y-72136000D02*
X123444000Y-69596000D01*
X122174000Y-69316000D02*
X120624000Y-69316000D01*
X120624000Y-69316000D02*
X120624000Y-72416000D01*
X150368000Y-72136000D02*
X168148000Y-72136000D01*
X168148000Y-72136000D02*
X168148000Y-69596000D01*
X168148000Y-69596000D02*
X150368000Y-69596000D01*
X147548000Y-72416000D02*
X149098000Y-72416000D01*
X150368000Y-72136000D02*
X150368000Y-69596000D01*
X149098000Y-69316000D02*
X147548000Y-69316000D01*
X147548000Y-69316000D02*
X147548000Y-72416000D01*
X173228000Y-72136000D02*
X191008000Y-72136000D01*
X191008000Y-72136000D02*
X191008000Y-69596000D01*
X191008000Y-69596000D02*
X173228000Y-69596000D01*
X170408000Y-72416000D02*
X171958000Y-72416000D01*
X173228000Y-72136000D02*
X173228000Y-69596000D01*
X171958000Y-69316000D02*
X170408000Y-69316000D01*
X170408000Y-69316000D02*
X170408000Y-72416000D01*
X119634000Y-119126000D02*
G75*
G03X119634000Y-119126000I-2286000J0D01*
G01*
X171704000Y-114046000D02*
G75*
G03X171704000Y-114046000I-2286000J0D01*
G01*
X202184000Y-119126000D02*
G75*
G03X202184000Y-119126000I-2286000J0D01*
G01*
X120904000Y-70866000D02*
G75*
G03X120904000Y-70866000I-2286000J0D01*
G01*
X171704000Y-86106000D02*
G75*
G03X171704000Y-86106000I-2286000J0D01*
G01*
X195834000Y-70866000D02*
G75*
G03X195834000Y-70866000I-2286000J0D01*
G01*
D12*
X168085000Y-79030000D02*
X168241000Y-79030000D01*
X165769000Y-79030000D02*
X165925000Y-79030000D01*
X168084837Y-76428870D02*
G75*
G02X168085000Y-78510961I-1079837J-1041130D01*
G01*
X165925163Y-76428870D02*
G75*
G03X165925000Y-78510961I1079837J-1041130D01*
G01*
X168083608Y-75797665D02*
G75*
G02X168240516Y-79030000I-1078608J-1672335D01*
G01*
X165926392Y-75797665D02*
G75*
G03X165769484Y-79030000I1078608J-1672335D01*
G01*
X171006392Y-75797665D02*
G75*
G03X170849484Y-79030000I1078608J-1672335D01*
G01*
X173163608Y-75797665D02*
G75*
G02X173320516Y-79030000I-1078608J-1672335D01*
G01*
X171005163Y-76428870D02*
G75*
G03X171005000Y-78510961I1079837J-1041130D01*
G01*
X173164837Y-76428870D02*
G75*
G02X173165000Y-78510961I-1079837J-1041130D01*
G01*
X170849000Y-79030000D02*
X171005000Y-79030000D01*
X173165000Y-79030000D02*
X173321000Y-79030000D01*
X177610000Y-79030000D02*
X177766000Y-79030000D01*
X175294000Y-79030000D02*
X175450000Y-79030000D01*
X177609837Y-76428870D02*
G75*
G02X177610000Y-78510961I-1079837J-1041130D01*
G01*
X175450163Y-76428870D02*
G75*
G03X175450000Y-78510961I1079837J-1041130D01*
G01*
X177608608Y-75797665D02*
G75*
G02X177765516Y-79030000I-1078608J-1672335D01*
G01*
X175451392Y-75797665D02*
G75*
G03X175294484Y-79030000I1078608J-1672335D01*
G01*
X179896392Y-75797665D02*
G75*
G03X179739484Y-79030000I1078608J-1672335D01*
G01*
X182053608Y-75797665D02*
G75*
G02X182210516Y-79030000I-1078608J-1672335D01*
G01*
X179895163Y-76428870D02*
G75*
G03X179895000Y-78510961I1079837J-1041130D01*
G01*
X182054837Y-76428870D02*
G75*
G02X182055000Y-78510961I-1079837J-1041130D01*
G01*
X179739000Y-79030000D02*
X179895000Y-79030000D01*
X182055000Y-79030000D02*
X182211000Y-79030000D01*
X184341392Y-75797665D02*
G75*
G03X184184484Y-79030000I1078608J-1672335D01*
G01*
X186498608Y-75797665D02*
G75*
G02X186655516Y-79030000I-1078608J-1672335D01*
G01*
X184340163Y-76428870D02*
G75*
G03X184340000Y-78510961I1079837J-1041130D01*
G01*
X186499837Y-76428870D02*
G75*
G02X186500000Y-78510961I-1079837J-1041130D01*
G01*
X184184000Y-79030000D02*
X184340000Y-79030000D01*
X186500000Y-79030000D02*
X186656000Y-79030000D01*
X130115000Y-107890000D02*
X131445000Y-107890000D01*
X130115000Y-109220000D02*
X130115000Y-107890000D01*
X130115000Y-110490000D02*
X132775000Y-110490000D01*
X132775000Y-110490000D02*
X132775000Y-113090000D01*
X130115000Y-110490000D02*
X130115000Y-113090000D01*
X130115000Y-113090000D02*
X132775000Y-113090000D01*
X134560000Y-113090000D02*
X137220000Y-113090000D01*
X134560000Y-110490000D02*
X134560000Y-113090000D01*
X137220000Y-110490000D02*
X137220000Y-113090000D01*
X134560000Y-110490000D02*
X137220000Y-110490000D01*
X134560000Y-109220000D02*
X134560000Y-107890000D01*
X134560000Y-107890000D02*
X135890000Y-107890000D01*
X140275000Y-107890000D02*
X141605000Y-107890000D01*
X140275000Y-109220000D02*
X140275000Y-107890000D01*
X140275000Y-110490000D02*
X142935000Y-110490000D01*
X142935000Y-110490000D02*
X142935000Y-113090000D01*
X140275000Y-110490000D02*
X140275000Y-113090000D01*
X140275000Y-113090000D02*
X142935000Y-113090000D01*
X144720000Y-113090000D02*
X147380000Y-113090000D01*
X144720000Y-110490000D02*
X144720000Y-113090000D01*
X147380000Y-110490000D02*
X147380000Y-113090000D01*
X144720000Y-110490000D02*
X147380000Y-110490000D01*
X144720000Y-109220000D02*
X144720000Y-107890000D01*
X144720000Y-107890000D02*
X146050000Y-107890000D01*
X150435000Y-113090000D02*
X153095000Y-113090000D01*
X150435000Y-110490000D02*
X150435000Y-113090000D01*
X153095000Y-110490000D02*
X153095000Y-113090000D01*
X150435000Y-110490000D02*
X153095000Y-110490000D01*
X150435000Y-109220000D02*
X150435000Y-107890000D01*
X150435000Y-107890000D02*
X151765000Y-107890000D01*
X154880000Y-107890000D02*
X156210000Y-107890000D01*
X154880000Y-109220000D02*
X154880000Y-107890000D01*
X154880000Y-110490000D02*
X157540000Y-110490000D01*
X157540000Y-110490000D02*
X157540000Y-113090000D01*
X154880000Y-110490000D02*
X154880000Y-113090000D01*
X154880000Y-113090000D02*
X157540000Y-113090000D01*
X122495000Y-119440000D02*
X127695000Y-119440000D01*
X122495000Y-114300000D02*
X122495000Y-119440000D01*
X127695000Y-111700000D02*
X127695000Y-119440000D01*
X122495000Y-114300000D02*
X125095000Y-114300000D01*
X125095000Y-114300000D02*
X125095000Y-111700000D01*
X125095000Y-111700000D02*
X127695000Y-111700000D01*
X122495000Y-113030000D02*
X122495000Y-111700000D01*
X122495000Y-111700000D02*
X123825000Y-111700000D01*
X149285000Y-99120000D02*
X147955000Y-99120000D01*
X149285000Y-97790000D02*
X149285000Y-99120000D01*
X149285000Y-96520000D02*
X146625000Y-96520000D01*
X146625000Y-96520000D02*
X146625000Y-93920000D01*
X149285000Y-96520000D02*
X149285000Y-93920000D01*
X149285000Y-93920000D02*
X146625000Y-93920000D01*
X142815000Y-96520000D02*
X145475000Y-96520000D01*
X142815000Y-96520000D02*
X142815000Y-99120000D01*
X142815000Y-99120000D02*
X145475000Y-99120000D01*
X145475000Y-96520000D02*
X145475000Y-99120000D01*
X145475000Y-93920000D02*
X145475000Y-95250000D01*
X144145000Y-93920000D02*
X145475000Y-93920000D01*
X105350000Y-75505000D02*
X106680000Y-75505000D01*
X105350000Y-76835000D02*
X105350000Y-75505000D01*
X105350000Y-78105000D02*
X108010000Y-78105000D01*
X108010000Y-78105000D02*
X108010000Y-95945000D01*
X105350000Y-78105000D02*
X105350000Y-95945000D01*
X105350000Y-95945000D02*
X108010000Y-95945000D01*
X158690000Y-104835000D02*
X161350000Y-104835000D01*
X158690000Y-99695000D02*
X158690000Y-104835000D01*
X161350000Y-99695000D02*
X161350000Y-104835000D01*
X158690000Y-99695000D02*
X161350000Y-99695000D01*
X158690000Y-98425000D02*
X158690000Y-97095000D01*
X158690000Y-97095000D02*
X160020000Y-97095000D01*
X153610000Y-104200000D02*
X156270000Y-104200000D01*
X153610000Y-101600000D02*
X153610000Y-104200000D01*
X156270000Y-101600000D02*
X156270000Y-104200000D01*
X153610000Y-101600000D02*
X156270000Y-101600000D01*
X153610000Y-100330000D02*
X153610000Y-99000000D01*
X153610000Y-99000000D02*
X154940000Y-99000000D01*
X159325000Y-86420000D02*
X161985000Y-86420000D01*
X159325000Y-78740000D02*
X159325000Y-86420000D01*
X161985000Y-78740000D02*
X161985000Y-86420000D01*
X159325000Y-78740000D02*
X161985000Y-78740000D01*
X159325000Y-77470000D02*
X159325000Y-76140000D01*
X159325000Y-76140000D02*
X160655000Y-76140000D01*
X152340000Y-76140000D02*
X153670000Y-76140000D01*
X152340000Y-77470000D02*
X152340000Y-76140000D01*
X152340000Y-78740000D02*
X155000000Y-78740000D01*
X155000000Y-78740000D02*
X155000000Y-86420000D01*
X152340000Y-78740000D02*
X152340000Y-86420000D01*
X152340000Y-86420000D02*
X155000000Y-86420000D01*
X145355000Y-88325000D02*
X148015000Y-88325000D01*
X145355000Y-85725000D02*
X145355000Y-88325000D01*
X148015000Y-85725000D02*
X148015000Y-88325000D01*
X145355000Y-85725000D02*
X148015000Y-85725000D01*
X145355000Y-84455000D02*
X145355000Y-83125000D01*
X145355000Y-83125000D02*
X146685000Y-83125000D01*
X139640000Y-83125000D02*
X140970000Y-83125000D01*
X139640000Y-84455000D02*
X139640000Y-83125000D01*
X139640000Y-85725000D02*
X142300000Y-85725000D01*
X142300000Y-85725000D02*
X142300000Y-88325000D01*
X139640000Y-85725000D02*
X139640000Y-88325000D01*
X139640000Y-88325000D02*
X142300000Y-88325000D01*
X155860000Y-93980000D02*
G75*
G03X155860000Y-93980000I-920000J0D01*
G01*
X154940000Y-93060000D02*
X154940000Y-92440000D01*
X164750000Y-109855000D02*
G75*
G03X164750000Y-109855000I-920000J0D01*
G01*
X164750000Y-109855000D02*
X165370000Y-109855000D01*
X189515000Y-110490000D02*
G75*
G03X189515000Y-110490000I-920000J0D01*
G01*
X189515000Y-110490000D02*
X190135000Y-110490000D01*
X171100000Y-94615000D02*
X171720000Y-94615000D01*
X171100000Y-94615000D02*
G75*
G03X171100000Y-94615000I-920000J0D01*
G01*
X189515000Y-113030000D02*
X190135000Y-113030000D01*
X189515000Y-113030000D02*
G75*
G03X189515000Y-113030000I-920000J0D01*
G01*
X188245000Y-97155000D02*
G75*
G03X188245000Y-97155000I-920000J0D01*
G01*
X188245000Y-97155000D02*
X188865000Y-97155000D01*
X188245000Y-92075000D02*
X188865000Y-92075000D01*
X188245000Y-92075000D02*
G75*
G03X188245000Y-92075000I-920000J0D01*
G01*
X167290000Y-81915000D02*
X167910000Y-81915000D01*
X167290000Y-81915000D02*
G75*
G03X167290000Y-81915000I-920000J0D01*
G01*
X166735000Y-106465000D02*
X171235000Y-106465000D01*
X165485000Y-102465000D02*
X165485000Y-103965000D01*
X171235000Y-99965000D02*
X166735000Y-99965000D01*
X172485000Y-103965000D02*
X172485000Y-102465000D01*
X183280000Y-95075000D02*
X183280000Y-93575000D01*
X182030000Y-91075000D02*
X177530000Y-91075000D01*
X176280000Y-93575000D02*
X176280000Y-95075000D01*
X177530000Y-97575000D02*
X182030000Y-97575000D01*
X177530000Y-106465000D02*
X182030000Y-106465000D01*
X176280000Y-102465000D02*
X176280000Y-103965000D01*
X182030000Y-99965000D02*
X177530000Y-99965000D01*
X183280000Y-103965000D02*
X183280000Y-102465000D01*
X183280000Y-112855000D02*
X183280000Y-111355000D01*
X182030000Y-108855000D02*
X177530000Y-108855000D01*
X176280000Y-111355000D02*
X176280000Y-112855000D01*
X177530000Y-115355000D02*
X182030000Y-115355000D01*
X188325000Y-106465000D02*
X192825000Y-106465000D01*
X187075000Y-102465000D02*
X187075000Y-103965000D01*
X192825000Y-99965000D02*
X188325000Y-99965000D01*
X194075000Y-103965000D02*
X194075000Y-102465000D01*
X193440000Y-85550000D02*
X193440000Y-84050000D01*
X192190000Y-81550000D02*
X187690000Y-81550000D01*
X186440000Y-84050000D02*
X186440000Y-85550000D01*
X187690000Y-88050000D02*
X192190000Y-88050000D01*
X115300000Y-75505000D02*
G75*
G02X113300000Y-75505000I-1000000J0D01*
G01*
X113300000Y-75505000D02*
X111650000Y-75505000D01*
X111650000Y-75505000D02*
X111650000Y-111185000D01*
X111650000Y-111185000D02*
X116950000Y-111185000D01*
X116950000Y-111185000D02*
X116950000Y-75505000D01*
X116950000Y-75505000D02*
X115300000Y-75505000D01*
D10*
X131318095Y-81577380D02*
X131318095Y-82386904D01*
X131365714Y-82482142D01*
X131413333Y-82529761D01*
X131508571Y-82577380D01*
X131699047Y-82577380D01*
X131794285Y-82529761D01*
X131841904Y-82482142D01*
X131889523Y-82386904D01*
X131889523Y-81577380D01*
X132318095Y-81672619D02*
X132365714Y-81625000D01*
X132460952Y-81577380D01*
X132699047Y-81577380D01*
X132794285Y-81625000D01*
X132841904Y-81672619D01*
X132889523Y-81767857D01*
X132889523Y-81863095D01*
X132841904Y-82005952D01*
X132270476Y-82577380D01*
X132889523Y-82577380D01*
X195016380Y-93194095D02*
X194016380Y-93194095D01*
X194016380Y-92813142D01*
X194064000Y-92717904D01*
X194111619Y-92670285D01*
X194206857Y-92622666D01*
X194349714Y-92622666D01*
X194444952Y-92670285D01*
X194492571Y-92717904D01*
X194540190Y-92813142D01*
X194540190Y-93194095D01*
X195016380Y-91670285D02*
X195016380Y-92241714D01*
X195016380Y-91956000D02*
X194016380Y-91956000D01*
X194159238Y-92051238D01*
X194254476Y-92146476D01*
X194302095Y-92241714D01*
X139469904Y-116784380D02*
X139469904Y-115784380D01*
X139850857Y-115784380D01*
X139946095Y-115832000D01*
X139993714Y-115879619D01*
X140041333Y-115974857D01*
X140041333Y-116117714D01*
X139993714Y-116212952D01*
X139946095Y-116260571D01*
X139850857Y-116308190D01*
X139469904Y-116308190D01*
X140422285Y-115879619D02*
X140469904Y-115832000D01*
X140565142Y-115784380D01*
X140803238Y-115784380D01*
X140898476Y-115832000D01*
X140946095Y-115879619D01*
X140993714Y-115974857D01*
X140993714Y-116070095D01*
X140946095Y-116212952D01*
X140374666Y-116784380D01*
X140993714Y-116784380D01*
X162329904Y-117038380D02*
X162329904Y-116038380D01*
X162710857Y-116038380D01*
X162806095Y-116086000D01*
X162853714Y-116133619D01*
X162901333Y-116228857D01*
X162901333Y-116371714D01*
X162853714Y-116466952D01*
X162806095Y-116514571D01*
X162710857Y-116562190D01*
X162329904Y-116562190D01*
X163234666Y-116038380D02*
X163853714Y-116038380D01*
X163520380Y-116419333D01*
X163663238Y-116419333D01*
X163758476Y-116466952D01*
X163806095Y-116514571D01*
X163853714Y-116609809D01*
X163853714Y-116847904D01*
X163806095Y-116943142D01*
X163758476Y-116990761D01*
X163663238Y-117038380D01*
X163377523Y-117038380D01*
X163282285Y-116990761D01*
X163234666Y-116943142D01*
X185189904Y-116784380D02*
X185189904Y-115784380D01*
X185570857Y-115784380D01*
X185666095Y-115832000D01*
X185713714Y-115879619D01*
X185761333Y-115974857D01*
X185761333Y-116117714D01*
X185713714Y-116212952D01*
X185666095Y-116260571D01*
X185570857Y-116308190D01*
X185189904Y-116308190D01*
X186618476Y-116117714D02*
X186618476Y-116784380D01*
X186380380Y-115736761D02*
X186142285Y-116451047D01*
X186761333Y-116451047D01*
X132865904Y-74112380D02*
X132865904Y-73112380D01*
X133246857Y-73112380D01*
X133342095Y-73160000D01*
X133389714Y-73207619D01*
X133437333Y-73302857D01*
X133437333Y-73445714D01*
X133389714Y-73540952D01*
X133342095Y-73588571D01*
X133246857Y-73636190D01*
X132865904Y-73636190D01*
X134342095Y-73112380D02*
X133865904Y-73112380D01*
X133818285Y-73588571D01*
X133865904Y-73540952D01*
X133961142Y-73493333D01*
X134199238Y-73493333D01*
X134294476Y-73540952D01*
X134342095Y-73588571D01*
X134389714Y-73683809D01*
X134389714Y-73921904D01*
X134342095Y-74017142D01*
X134294476Y-74064761D01*
X134199238Y-74112380D01*
X133961142Y-74112380D01*
X133865904Y-74064761D01*
X133818285Y-74017142D01*
X157249904Y-74112380D02*
X157249904Y-73112380D01*
X157630857Y-73112380D01*
X157726095Y-73160000D01*
X157773714Y-73207619D01*
X157821333Y-73302857D01*
X157821333Y-73445714D01*
X157773714Y-73540952D01*
X157726095Y-73588571D01*
X157630857Y-73636190D01*
X157249904Y-73636190D01*
X158678476Y-73112380D02*
X158488000Y-73112380D01*
X158392761Y-73160000D01*
X158345142Y-73207619D01*
X158249904Y-73350476D01*
X158202285Y-73540952D01*
X158202285Y-73921904D01*
X158249904Y-74017142D01*
X158297523Y-74064761D01*
X158392761Y-74112380D01*
X158583238Y-74112380D01*
X158678476Y-74064761D01*
X158726095Y-74017142D01*
X158773714Y-73921904D01*
X158773714Y-73683809D01*
X158726095Y-73588571D01*
X158678476Y-73540952D01*
X158583238Y-73493333D01*
X158392761Y-73493333D01*
X158297523Y-73540952D01*
X158249904Y-73588571D01*
X158202285Y-73683809D01*
X180109904Y-74112380D02*
X180109904Y-73112380D01*
X180490857Y-73112380D01*
X180586095Y-73160000D01*
X180633714Y-73207619D01*
X180681333Y-73302857D01*
X180681333Y-73445714D01*
X180633714Y-73540952D01*
X180586095Y-73588571D01*
X180490857Y-73636190D01*
X180109904Y-73636190D01*
X181014666Y-73112380D02*
X181681333Y-73112380D01*
X181252761Y-74112380D01*
X164497380Y-78208095D02*
X163497380Y-78208095D01*
X163497380Y-77970000D01*
X163545000Y-77827142D01*
X163640238Y-77731904D01*
X163735476Y-77684285D01*
X163925952Y-77636666D01*
X164068809Y-77636666D01*
X164259285Y-77684285D01*
X164354523Y-77731904D01*
X164449761Y-77827142D01*
X164497380Y-77970000D01*
X164497380Y-78208095D01*
X164497380Y-76684285D02*
X164497380Y-77255714D01*
X164497380Y-76970000D02*
X163497380Y-76970000D01*
X163640238Y-77065238D01*
X163735476Y-77160476D01*
X163783095Y-77255714D01*
X169577380Y-78208095D02*
X168577380Y-78208095D01*
X168577380Y-77970000D01*
X168625000Y-77827142D01*
X168720238Y-77731904D01*
X168815476Y-77684285D01*
X169005952Y-77636666D01*
X169148809Y-77636666D01*
X169339285Y-77684285D01*
X169434523Y-77731904D01*
X169529761Y-77827142D01*
X169577380Y-77970000D01*
X169577380Y-78208095D01*
X168672619Y-77255714D02*
X168625000Y-77208095D01*
X168577380Y-77112857D01*
X168577380Y-76874761D01*
X168625000Y-76779523D01*
X168672619Y-76731904D01*
X168767857Y-76684285D01*
X168863095Y-76684285D01*
X169005952Y-76731904D01*
X169577380Y-77303333D01*
X169577380Y-76684285D01*
X174022380Y-78208095D02*
X173022380Y-78208095D01*
X173022380Y-77970000D01*
X173070000Y-77827142D01*
X173165238Y-77731904D01*
X173260476Y-77684285D01*
X173450952Y-77636666D01*
X173593809Y-77636666D01*
X173784285Y-77684285D01*
X173879523Y-77731904D01*
X173974761Y-77827142D01*
X174022380Y-77970000D01*
X174022380Y-78208095D01*
X173022380Y-77303333D02*
X173022380Y-76684285D01*
X173403333Y-77017619D01*
X173403333Y-76874761D01*
X173450952Y-76779523D01*
X173498571Y-76731904D01*
X173593809Y-76684285D01*
X173831904Y-76684285D01*
X173927142Y-76731904D01*
X173974761Y-76779523D01*
X174022380Y-76874761D01*
X174022380Y-77160476D01*
X173974761Y-77255714D01*
X173927142Y-77303333D01*
X178467380Y-78208095D02*
X177467380Y-78208095D01*
X177467380Y-77970000D01*
X177515000Y-77827142D01*
X177610238Y-77731904D01*
X177705476Y-77684285D01*
X177895952Y-77636666D01*
X178038809Y-77636666D01*
X178229285Y-77684285D01*
X178324523Y-77731904D01*
X178419761Y-77827142D01*
X178467380Y-77970000D01*
X178467380Y-78208095D01*
X177800714Y-76779523D02*
X178467380Y-76779523D01*
X177419761Y-77017619D02*
X178134047Y-77255714D01*
X178134047Y-76636666D01*
X182912380Y-78208095D02*
X181912380Y-78208095D01*
X181912380Y-77970000D01*
X181960000Y-77827142D01*
X182055238Y-77731904D01*
X182150476Y-77684285D01*
X182340952Y-77636666D01*
X182483809Y-77636666D01*
X182674285Y-77684285D01*
X182769523Y-77731904D01*
X182864761Y-77827142D01*
X182912380Y-77970000D01*
X182912380Y-78208095D01*
X181912380Y-76731904D02*
X181912380Y-77208095D01*
X182388571Y-77255714D01*
X182340952Y-77208095D01*
X182293333Y-77112857D01*
X182293333Y-76874761D01*
X182340952Y-76779523D01*
X182388571Y-76731904D01*
X182483809Y-76684285D01*
X182721904Y-76684285D01*
X182817142Y-76731904D01*
X182864761Y-76779523D01*
X182912380Y-76874761D01*
X182912380Y-77112857D01*
X182864761Y-77208095D01*
X182817142Y-77255714D01*
X131111666Y-106342380D02*
X131111666Y-107056666D01*
X131064047Y-107199523D01*
X130968809Y-107294761D01*
X130825952Y-107342380D01*
X130730714Y-107342380D01*
X132111666Y-107342380D02*
X131540238Y-107342380D01*
X131825952Y-107342380D02*
X131825952Y-106342380D01*
X131730714Y-106485238D01*
X131635476Y-106580476D01*
X131540238Y-106628095D01*
X135556666Y-106342380D02*
X135556666Y-107056666D01*
X135509047Y-107199523D01*
X135413809Y-107294761D01*
X135270952Y-107342380D01*
X135175714Y-107342380D01*
X135985238Y-106437619D02*
X136032857Y-106390000D01*
X136128095Y-106342380D01*
X136366190Y-106342380D01*
X136461428Y-106390000D01*
X136509047Y-106437619D01*
X136556666Y-106532857D01*
X136556666Y-106628095D01*
X136509047Y-106770952D01*
X135937619Y-107342380D01*
X136556666Y-107342380D01*
X141271666Y-106342380D02*
X141271666Y-107056666D01*
X141224047Y-107199523D01*
X141128809Y-107294761D01*
X140985952Y-107342380D01*
X140890714Y-107342380D01*
X141652619Y-106342380D02*
X142271666Y-106342380D01*
X141938333Y-106723333D01*
X142081190Y-106723333D01*
X142176428Y-106770952D01*
X142224047Y-106818571D01*
X142271666Y-106913809D01*
X142271666Y-107151904D01*
X142224047Y-107247142D01*
X142176428Y-107294761D01*
X142081190Y-107342380D01*
X141795476Y-107342380D01*
X141700238Y-107294761D01*
X141652619Y-107247142D01*
X145716666Y-106342380D02*
X145716666Y-107056666D01*
X145669047Y-107199523D01*
X145573809Y-107294761D01*
X145430952Y-107342380D01*
X145335714Y-107342380D01*
X146621428Y-106675714D02*
X146621428Y-107342380D01*
X146383333Y-106294761D02*
X146145238Y-107009047D01*
X146764285Y-107009047D01*
X151431666Y-106342380D02*
X151431666Y-107056666D01*
X151384047Y-107199523D01*
X151288809Y-107294761D01*
X151145952Y-107342380D01*
X151050714Y-107342380D01*
X152384047Y-106342380D02*
X151907857Y-106342380D01*
X151860238Y-106818571D01*
X151907857Y-106770952D01*
X152003095Y-106723333D01*
X152241190Y-106723333D01*
X152336428Y-106770952D01*
X152384047Y-106818571D01*
X152431666Y-106913809D01*
X152431666Y-107151904D01*
X152384047Y-107247142D01*
X152336428Y-107294761D01*
X152241190Y-107342380D01*
X152003095Y-107342380D01*
X151907857Y-107294761D01*
X151860238Y-107247142D01*
X155876666Y-106342380D02*
X155876666Y-107056666D01*
X155829047Y-107199523D01*
X155733809Y-107294761D01*
X155590952Y-107342380D01*
X155495714Y-107342380D01*
X156781428Y-106342380D02*
X156590952Y-106342380D01*
X156495714Y-106390000D01*
X156448095Y-106437619D01*
X156352857Y-106580476D01*
X156305238Y-106770952D01*
X156305238Y-107151904D01*
X156352857Y-107247142D01*
X156400476Y-107294761D01*
X156495714Y-107342380D01*
X156686190Y-107342380D01*
X156781428Y-107294761D01*
X156829047Y-107247142D01*
X156876666Y-107151904D01*
X156876666Y-106913809D01*
X156829047Y-106818571D01*
X156781428Y-106770952D01*
X156686190Y-106723333D01*
X156495714Y-106723333D01*
X156400476Y-106770952D01*
X156352857Y-106818571D01*
X156305238Y-106913809D01*
X124761666Y-110152380D02*
X124761666Y-110866666D01*
X124714047Y-111009523D01*
X124618809Y-111104761D01*
X124475952Y-111152380D01*
X124380714Y-111152380D01*
X125142619Y-110152380D02*
X125809285Y-110152380D01*
X125380714Y-111152380D01*
X147621666Y-99572380D02*
X147621666Y-100286666D01*
X147574047Y-100429523D01*
X147478809Y-100524761D01*
X147335952Y-100572380D01*
X147240714Y-100572380D01*
X148240714Y-100000952D02*
X148145476Y-99953333D01*
X148097857Y-99905714D01*
X148050238Y-99810476D01*
X148050238Y-99762857D01*
X148097857Y-99667619D01*
X148145476Y-99620000D01*
X148240714Y-99572380D01*
X148431190Y-99572380D01*
X148526428Y-99620000D01*
X148574047Y-99667619D01*
X148621666Y-99762857D01*
X148621666Y-99810476D01*
X148574047Y-99905714D01*
X148526428Y-99953333D01*
X148431190Y-100000952D01*
X148240714Y-100000952D01*
X148145476Y-100048571D01*
X148097857Y-100096190D01*
X148050238Y-100191428D01*
X148050238Y-100381904D01*
X148097857Y-100477142D01*
X148145476Y-100524761D01*
X148240714Y-100572380D01*
X148431190Y-100572380D01*
X148526428Y-100524761D01*
X148574047Y-100477142D01*
X148621666Y-100381904D01*
X148621666Y-100191428D01*
X148574047Y-100096190D01*
X148526428Y-100048571D01*
X148431190Y-100000952D01*
X143811666Y-91932380D02*
X143811666Y-92646666D01*
X143764047Y-92789523D01*
X143668809Y-92884761D01*
X143525952Y-92932380D01*
X143430714Y-92932380D01*
X144335476Y-92932380D02*
X144525952Y-92932380D01*
X144621190Y-92884761D01*
X144668809Y-92837142D01*
X144764047Y-92694285D01*
X144811666Y-92503809D01*
X144811666Y-92122857D01*
X144764047Y-92027619D01*
X144716428Y-91980000D01*
X144621190Y-91932380D01*
X144430714Y-91932380D01*
X144335476Y-91980000D01*
X144287857Y-92027619D01*
X144240238Y-92122857D01*
X144240238Y-92360952D01*
X144287857Y-92456190D01*
X144335476Y-92503809D01*
X144430714Y-92551428D01*
X144621190Y-92551428D01*
X144716428Y-92503809D01*
X144764047Y-92456190D01*
X144811666Y-92360952D01*
X105870476Y-73957380D02*
X105870476Y-74671666D01*
X105822857Y-74814523D01*
X105727619Y-74909761D01*
X105584761Y-74957380D01*
X105489523Y-74957380D01*
X106870476Y-74957380D02*
X106299047Y-74957380D01*
X106584761Y-74957380D02*
X106584761Y-73957380D01*
X106489523Y-74100238D01*
X106394285Y-74195476D01*
X106299047Y-74243095D01*
X107489523Y-73957380D02*
X107584761Y-73957380D01*
X107680000Y-74005000D01*
X107727619Y-74052619D01*
X107775238Y-74147857D01*
X107822857Y-74338333D01*
X107822857Y-74576428D01*
X107775238Y-74766904D01*
X107727619Y-74862142D01*
X107680000Y-74909761D01*
X107584761Y-74957380D01*
X107489523Y-74957380D01*
X107394285Y-74909761D01*
X107346666Y-74862142D01*
X107299047Y-74766904D01*
X107251428Y-74576428D01*
X107251428Y-74338333D01*
X107299047Y-74147857D01*
X107346666Y-74052619D01*
X107394285Y-74005000D01*
X107489523Y-73957380D01*
X121110476Y-96397380D02*
X121110476Y-97111666D01*
X121062857Y-97254523D01*
X120967619Y-97349761D01*
X120824761Y-97397380D01*
X120729523Y-97397380D01*
X122110476Y-97397380D02*
X121539047Y-97397380D01*
X121824761Y-97397380D02*
X121824761Y-96397380D01*
X121729523Y-96540238D01*
X121634285Y-96635476D01*
X121539047Y-96683095D01*
X123062857Y-97397380D02*
X122491428Y-97397380D01*
X122777142Y-97397380D02*
X122777142Y-96397380D01*
X122681904Y-96540238D01*
X122586666Y-96635476D01*
X122491428Y-96683095D01*
X159210476Y-95547380D02*
X159210476Y-96261666D01*
X159162857Y-96404523D01*
X159067619Y-96499761D01*
X158924761Y-96547380D01*
X158829523Y-96547380D01*
X160210476Y-96547380D02*
X159639047Y-96547380D01*
X159924761Y-96547380D02*
X159924761Y-95547380D01*
X159829523Y-95690238D01*
X159734285Y-95785476D01*
X159639047Y-95833095D01*
X160591428Y-95642619D02*
X160639047Y-95595000D01*
X160734285Y-95547380D01*
X160972380Y-95547380D01*
X161067619Y-95595000D01*
X161115238Y-95642619D01*
X161162857Y-95737857D01*
X161162857Y-95833095D01*
X161115238Y-95975952D01*
X160543809Y-96547380D01*
X161162857Y-96547380D01*
X154130476Y-97452380D02*
X154130476Y-98166666D01*
X154082857Y-98309523D01*
X153987619Y-98404761D01*
X153844761Y-98452380D01*
X153749523Y-98452380D01*
X155130476Y-98452380D02*
X154559047Y-98452380D01*
X154844761Y-98452380D02*
X154844761Y-97452380D01*
X154749523Y-97595238D01*
X154654285Y-97690476D01*
X154559047Y-97738095D01*
X155463809Y-97452380D02*
X156082857Y-97452380D01*
X155749523Y-97833333D01*
X155892380Y-97833333D01*
X155987619Y-97880952D01*
X156035238Y-97928571D01*
X156082857Y-98023809D01*
X156082857Y-98261904D01*
X156035238Y-98357142D01*
X155987619Y-98404761D01*
X155892380Y-98452380D01*
X155606666Y-98452380D01*
X155511428Y-98404761D01*
X155463809Y-98357142D01*
X159845476Y-74592380D02*
X159845476Y-75306666D01*
X159797857Y-75449523D01*
X159702619Y-75544761D01*
X159559761Y-75592380D01*
X159464523Y-75592380D01*
X160845476Y-75592380D02*
X160274047Y-75592380D01*
X160559761Y-75592380D02*
X160559761Y-74592380D01*
X160464523Y-74735238D01*
X160369285Y-74830476D01*
X160274047Y-74878095D01*
X161702619Y-74925714D02*
X161702619Y-75592380D01*
X161464523Y-74544761D02*
X161226428Y-75259047D01*
X161845476Y-75259047D01*
X152860476Y-74592380D02*
X152860476Y-75306666D01*
X152812857Y-75449523D01*
X152717619Y-75544761D01*
X152574761Y-75592380D01*
X152479523Y-75592380D01*
X153860476Y-75592380D02*
X153289047Y-75592380D01*
X153574761Y-75592380D02*
X153574761Y-74592380D01*
X153479523Y-74735238D01*
X153384285Y-74830476D01*
X153289047Y-74878095D01*
X154765238Y-74592380D02*
X154289047Y-74592380D01*
X154241428Y-75068571D01*
X154289047Y-75020952D01*
X154384285Y-74973333D01*
X154622380Y-74973333D01*
X154717619Y-75020952D01*
X154765238Y-75068571D01*
X154812857Y-75163809D01*
X154812857Y-75401904D01*
X154765238Y-75497142D01*
X154717619Y-75544761D01*
X154622380Y-75592380D01*
X154384285Y-75592380D01*
X154289047Y-75544761D01*
X154241428Y-75497142D01*
X145875476Y-82577380D02*
X145875476Y-81577380D01*
X146208809Y-82291666D01*
X146542142Y-81577380D01*
X146542142Y-82577380D01*
X147542142Y-82577380D02*
X146970714Y-82577380D01*
X147256428Y-82577380D02*
X147256428Y-81577380D01*
X147161190Y-81720238D01*
X147065952Y-81815476D01*
X146970714Y-81863095D01*
X140160476Y-82577380D02*
X140160476Y-81577380D01*
X140493809Y-82291666D01*
X140827142Y-81577380D01*
X140827142Y-82577380D01*
X141255714Y-81672619D02*
X141303333Y-81625000D01*
X141398571Y-81577380D01*
X141636666Y-81577380D01*
X141731904Y-81625000D01*
X141779523Y-81672619D01*
X141827142Y-81767857D01*
X141827142Y-81863095D01*
X141779523Y-82005952D01*
X141208095Y-82577380D01*
X141827142Y-82577380D01*
X153472380Y-92876666D02*
X152996190Y-93210000D01*
X153472380Y-93448095D02*
X152472380Y-93448095D01*
X152472380Y-93067142D01*
X152520000Y-92971904D01*
X152567619Y-92924285D01*
X152662857Y-92876666D01*
X152805714Y-92876666D01*
X152900952Y-92924285D01*
X152948571Y-92971904D01*
X152996190Y-93067142D01*
X152996190Y-93448095D01*
X153472380Y-91924285D02*
X153472380Y-92495714D01*
X153472380Y-92210000D02*
X152472380Y-92210000D01*
X152615238Y-92305238D01*
X152710476Y-92400476D01*
X152758095Y-92495714D01*
X164933333Y-108387380D02*
X164600000Y-107911190D01*
X164361904Y-108387380D02*
X164361904Y-107387380D01*
X164742857Y-107387380D01*
X164838095Y-107435000D01*
X164885714Y-107482619D01*
X164933333Y-107577857D01*
X164933333Y-107720714D01*
X164885714Y-107815952D01*
X164838095Y-107863571D01*
X164742857Y-107911190D01*
X164361904Y-107911190D01*
X165314285Y-107482619D02*
X165361904Y-107435000D01*
X165457142Y-107387380D01*
X165695238Y-107387380D01*
X165790476Y-107435000D01*
X165838095Y-107482619D01*
X165885714Y-107577857D01*
X165885714Y-107673095D01*
X165838095Y-107815952D01*
X165266666Y-108387380D01*
X165885714Y-108387380D01*
X189698333Y-109022380D02*
X189365000Y-108546190D01*
X189126904Y-109022380D02*
X189126904Y-108022380D01*
X189507857Y-108022380D01*
X189603095Y-108070000D01*
X189650714Y-108117619D01*
X189698333Y-108212857D01*
X189698333Y-108355714D01*
X189650714Y-108450952D01*
X189603095Y-108498571D01*
X189507857Y-108546190D01*
X189126904Y-108546190D01*
X190031666Y-108022380D02*
X190650714Y-108022380D01*
X190317380Y-108403333D01*
X190460238Y-108403333D01*
X190555476Y-108450952D01*
X190603095Y-108498571D01*
X190650714Y-108593809D01*
X190650714Y-108831904D01*
X190603095Y-108927142D01*
X190555476Y-108974761D01*
X190460238Y-109022380D01*
X190174523Y-109022380D01*
X190079285Y-108974761D01*
X190031666Y-108927142D01*
X171283333Y-93147380D02*
X170950000Y-92671190D01*
X170711904Y-93147380D02*
X170711904Y-92147380D01*
X171092857Y-92147380D01*
X171188095Y-92195000D01*
X171235714Y-92242619D01*
X171283333Y-92337857D01*
X171283333Y-92480714D01*
X171235714Y-92575952D01*
X171188095Y-92623571D01*
X171092857Y-92671190D01*
X170711904Y-92671190D01*
X172140476Y-92480714D02*
X172140476Y-93147380D01*
X171902380Y-92099761D02*
X171664285Y-92814047D01*
X172283333Y-92814047D01*
X189698333Y-111562380D02*
X189365000Y-111086190D01*
X189126904Y-111562380D02*
X189126904Y-110562380D01*
X189507857Y-110562380D01*
X189603095Y-110610000D01*
X189650714Y-110657619D01*
X189698333Y-110752857D01*
X189698333Y-110895714D01*
X189650714Y-110990952D01*
X189603095Y-111038571D01*
X189507857Y-111086190D01*
X189126904Y-111086190D01*
X190603095Y-110562380D02*
X190126904Y-110562380D01*
X190079285Y-111038571D01*
X190126904Y-110990952D01*
X190222142Y-110943333D01*
X190460238Y-110943333D01*
X190555476Y-110990952D01*
X190603095Y-111038571D01*
X190650714Y-111133809D01*
X190650714Y-111371904D01*
X190603095Y-111467142D01*
X190555476Y-111514761D01*
X190460238Y-111562380D01*
X190222142Y-111562380D01*
X190126904Y-111514761D01*
X190079285Y-111467142D01*
X188428333Y-95687380D02*
X188095000Y-95211190D01*
X187856904Y-95687380D02*
X187856904Y-94687380D01*
X188237857Y-94687380D01*
X188333095Y-94735000D01*
X188380714Y-94782619D01*
X188428333Y-94877857D01*
X188428333Y-95020714D01*
X188380714Y-95115952D01*
X188333095Y-95163571D01*
X188237857Y-95211190D01*
X187856904Y-95211190D01*
X189285476Y-94687380D02*
X189095000Y-94687380D01*
X188999761Y-94735000D01*
X188952142Y-94782619D01*
X188856904Y-94925476D01*
X188809285Y-95115952D01*
X188809285Y-95496904D01*
X188856904Y-95592142D01*
X188904523Y-95639761D01*
X188999761Y-95687380D01*
X189190238Y-95687380D01*
X189285476Y-95639761D01*
X189333095Y-95592142D01*
X189380714Y-95496904D01*
X189380714Y-95258809D01*
X189333095Y-95163571D01*
X189285476Y-95115952D01*
X189190238Y-95068333D01*
X188999761Y-95068333D01*
X188904523Y-95115952D01*
X188856904Y-95163571D01*
X188809285Y-95258809D01*
X188428333Y-90607380D02*
X188095000Y-90131190D01*
X187856904Y-90607380D02*
X187856904Y-89607380D01*
X188237857Y-89607380D01*
X188333095Y-89655000D01*
X188380714Y-89702619D01*
X188428333Y-89797857D01*
X188428333Y-89940714D01*
X188380714Y-90035952D01*
X188333095Y-90083571D01*
X188237857Y-90131190D01*
X187856904Y-90131190D01*
X188761666Y-89607380D02*
X189428333Y-89607380D01*
X188999761Y-90607380D01*
X167473333Y-80447380D02*
X167140000Y-79971190D01*
X166901904Y-80447380D02*
X166901904Y-79447380D01*
X167282857Y-79447380D01*
X167378095Y-79495000D01*
X167425714Y-79542619D01*
X167473333Y-79637857D01*
X167473333Y-79780714D01*
X167425714Y-79875952D01*
X167378095Y-79923571D01*
X167282857Y-79971190D01*
X166901904Y-79971190D01*
X168044761Y-79875952D02*
X167949523Y-79828333D01*
X167901904Y-79780714D01*
X167854285Y-79685476D01*
X167854285Y-79637857D01*
X167901904Y-79542619D01*
X167949523Y-79495000D01*
X168044761Y-79447380D01*
X168235238Y-79447380D01*
X168330476Y-79495000D01*
X168378095Y-79542619D01*
X168425714Y-79637857D01*
X168425714Y-79685476D01*
X168378095Y-79780714D01*
X168330476Y-79828333D01*
X168235238Y-79875952D01*
X168044761Y-79875952D01*
X167949523Y-79923571D01*
X167901904Y-79971190D01*
X167854285Y-80066428D01*
X167854285Y-80256904D01*
X167901904Y-80352142D01*
X167949523Y-80399761D01*
X168044761Y-80447380D01*
X168235238Y-80447380D01*
X168330476Y-80399761D01*
X168378095Y-80352142D01*
X168425714Y-80256904D01*
X168425714Y-80066428D01*
X168378095Y-79971190D01*
X168330476Y-79923571D01*
X168235238Y-79875952D01*
X167651666Y-99369761D02*
X167794523Y-99417380D01*
X168032619Y-99417380D01*
X168127857Y-99369761D01*
X168175476Y-99322142D01*
X168223095Y-99226904D01*
X168223095Y-99131666D01*
X168175476Y-99036428D01*
X168127857Y-98988809D01*
X168032619Y-98941190D01*
X167842142Y-98893571D01*
X167746904Y-98845952D01*
X167699285Y-98798333D01*
X167651666Y-98703095D01*
X167651666Y-98607857D01*
X167699285Y-98512619D01*
X167746904Y-98465000D01*
X167842142Y-98417380D01*
X168080238Y-98417380D01*
X168223095Y-98465000D01*
X168556428Y-98417380D02*
X168794523Y-99417380D01*
X168985000Y-98703095D01*
X169175476Y-99417380D01*
X169413571Y-98417380D01*
X170318333Y-99417380D02*
X169746904Y-99417380D01*
X170032619Y-99417380D02*
X170032619Y-98417380D01*
X169937380Y-98560238D01*
X169842142Y-98655476D01*
X169746904Y-98703095D01*
X178446666Y-90479761D02*
X178589523Y-90527380D01*
X178827619Y-90527380D01*
X178922857Y-90479761D01*
X178970476Y-90432142D01*
X179018095Y-90336904D01*
X179018095Y-90241666D01*
X178970476Y-90146428D01*
X178922857Y-90098809D01*
X178827619Y-90051190D01*
X178637142Y-90003571D01*
X178541904Y-89955952D01*
X178494285Y-89908333D01*
X178446666Y-89813095D01*
X178446666Y-89717857D01*
X178494285Y-89622619D01*
X178541904Y-89575000D01*
X178637142Y-89527380D01*
X178875238Y-89527380D01*
X179018095Y-89575000D01*
X179351428Y-89527380D02*
X179589523Y-90527380D01*
X179780000Y-89813095D01*
X179970476Y-90527380D01*
X180208571Y-89527380D01*
X180541904Y-89622619D02*
X180589523Y-89575000D01*
X180684761Y-89527380D01*
X180922857Y-89527380D01*
X181018095Y-89575000D01*
X181065714Y-89622619D01*
X181113333Y-89717857D01*
X181113333Y-89813095D01*
X181065714Y-89955952D01*
X180494285Y-90527380D01*
X181113333Y-90527380D01*
X178446666Y-99369761D02*
X178589523Y-99417380D01*
X178827619Y-99417380D01*
X178922857Y-99369761D01*
X178970476Y-99322142D01*
X179018095Y-99226904D01*
X179018095Y-99131666D01*
X178970476Y-99036428D01*
X178922857Y-98988809D01*
X178827619Y-98941190D01*
X178637142Y-98893571D01*
X178541904Y-98845952D01*
X178494285Y-98798333D01*
X178446666Y-98703095D01*
X178446666Y-98607857D01*
X178494285Y-98512619D01*
X178541904Y-98465000D01*
X178637142Y-98417380D01*
X178875238Y-98417380D01*
X179018095Y-98465000D01*
X179351428Y-98417380D02*
X179589523Y-99417380D01*
X179780000Y-98703095D01*
X179970476Y-99417380D01*
X180208571Y-98417380D01*
X180494285Y-98417380D02*
X181113333Y-98417380D01*
X180780000Y-98798333D01*
X180922857Y-98798333D01*
X181018095Y-98845952D01*
X181065714Y-98893571D01*
X181113333Y-98988809D01*
X181113333Y-99226904D01*
X181065714Y-99322142D01*
X181018095Y-99369761D01*
X180922857Y-99417380D01*
X180637142Y-99417380D01*
X180541904Y-99369761D01*
X180494285Y-99322142D01*
X178446666Y-108259761D02*
X178589523Y-108307380D01*
X178827619Y-108307380D01*
X178922857Y-108259761D01*
X178970476Y-108212142D01*
X179018095Y-108116904D01*
X179018095Y-108021666D01*
X178970476Y-107926428D01*
X178922857Y-107878809D01*
X178827619Y-107831190D01*
X178637142Y-107783571D01*
X178541904Y-107735952D01*
X178494285Y-107688333D01*
X178446666Y-107593095D01*
X178446666Y-107497857D01*
X178494285Y-107402619D01*
X178541904Y-107355000D01*
X178637142Y-107307380D01*
X178875238Y-107307380D01*
X179018095Y-107355000D01*
X179351428Y-107307380D02*
X179589523Y-108307380D01*
X179780000Y-107593095D01*
X179970476Y-108307380D01*
X180208571Y-107307380D01*
X181018095Y-107640714D02*
X181018095Y-108307380D01*
X180780000Y-107259761D02*
X180541904Y-107974047D01*
X181160952Y-107974047D01*
X189241666Y-99369761D02*
X189384523Y-99417380D01*
X189622619Y-99417380D01*
X189717857Y-99369761D01*
X189765476Y-99322142D01*
X189813095Y-99226904D01*
X189813095Y-99131666D01*
X189765476Y-99036428D01*
X189717857Y-98988809D01*
X189622619Y-98941190D01*
X189432142Y-98893571D01*
X189336904Y-98845952D01*
X189289285Y-98798333D01*
X189241666Y-98703095D01*
X189241666Y-98607857D01*
X189289285Y-98512619D01*
X189336904Y-98465000D01*
X189432142Y-98417380D01*
X189670238Y-98417380D01*
X189813095Y-98465000D01*
X190146428Y-98417380D02*
X190384523Y-99417380D01*
X190575000Y-98703095D01*
X190765476Y-99417380D01*
X191003571Y-98417380D01*
X191860714Y-98417380D02*
X191384523Y-98417380D01*
X191336904Y-98893571D01*
X191384523Y-98845952D01*
X191479761Y-98798333D01*
X191717857Y-98798333D01*
X191813095Y-98845952D01*
X191860714Y-98893571D01*
X191908333Y-98988809D01*
X191908333Y-99226904D01*
X191860714Y-99322142D01*
X191813095Y-99369761D01*
X191717857Y-99417380D01*
X191479761Y-99417380D01*
X191384523Y-99369761D01*
X191336904Y-99322142D01*
X188606666Y-80954761D02*
X188749523Y-81002380D01*
X188987619Y-81002380D01*
X189082857Y-80954761D01*
X189130476Y-80907142D01*
X189178095Y-80811904D01*
X189178095Y-80716666D01*
X189130476Y-80621428D01*
X189082857Y-80573809D01*
X188987619Y-80526190D01*
X188797142Y-80478571D01*
X188701904Y-80430952D01*
X188654285Y-80383333D01*
X188606666Y-80288095D01*
X188606666Y-80192857D01*
X188654285Y-80097619D01*
X188701904Y-80050000D01*
X188797142Y-80002380D01*
X189035238Y-80002380D01*
X189178095Y-80050000D01*
X189511428Y-80002380D02*
X189749523Y-81002380D01*
X189940000Y-80288095D01*
X190130476Y-81002380D01*
X190368571Y-80002380D01*
X191178095Y-80002380D02*
X190987619Y-80002380D01*
X190892380Y-80050000D01*
X190844761Y-80097619D01*
X190749523Y-80240476D01*
X190701904Y-80430952D01*
X190701904Y-80811904D01*
X190749523Y-80907142D01*
X190797142Y-80954761D01*
X190892380Y-81002380D01*
X191082857Y-81002380D01*
X191178095Y-80954761D01*
X191225714Y-80907142D01*
X191273333Y-80811904D01*
X191273333Y-80573809D01*
X191225714Y-80478571D01*
X191178095Y-80430952D01*
X191082857Y-80383333D01*
X190892380Y-80383333D01*
X190797142Y-80430952D01*
X190749523Y-80478571D01*
X190701904Y-80573809D01*
X113538095Y-73957380D02*
X113538095Y-74766904D01*
X113585714Y-74862142D01*
X113633333Y-74909761D01*
X113728571Y-74957380D01*
X113919047Y-74957380D01*
X114014285Y-74909761D01*
X114061904Y-74862142D01*
X114109523Y-74766904D01*
X114109523Y-73957380D01*
X115109523Y-74957380D02*
X114538095Y-74957380D01*
X114823809Y-74957380D02*
X114823809Y-73957380D01*
X114728571Y-74100238D01*
X114633333Y-74195476D01*
X114538095Y-74243095D01*
M02*
