M48
; DRILL file {KiCad 5.1.5+dfsg1-2} date Sun 01 Mar 2020 10:33:59 ACDT
; FORMAT={-:-/ absolute / inch / decimal}
; #@! TF.CreationDate,2020-03-01T10:33:59+10:30
; #@! TF.GenerationSoftware,Kicad,Pcbnew,5.1.5+dfsg1-2
; #@! TF.FileFunction,Plated,1,2,PTH
FMAT,2
INCH
T1C0.0157
T2C0.0276
T3C0.0315
T4C0.0354
T5C0.0394
T6C0.0400
T7C0.0433
T8C0.1200
%
G90
G05
T1
X5.6893Y-2.9778
X5.789Y-3.0462
X5.8713Y-3.7197
X5.9431Y-3.6827
T2
X6.55Y-3.225
X6.65Y-3.225
X7.425Y-4.35
X7.525Y-4.35
X6.45Y-4.325
X6.55Y-4.325
X7.375Y-3.625
X7.475Y-3.625
X6.7Y-3.725
X6.8Y-3.725
X6.1Y-3.6
X6.1Y-3.7
X7.425Y-4.45
X7.525Y-4.45
X7.375Y-3.825
X7.475Y-3.825
T3
X4.35Y-3.025
X4.35Y-3.125
X4.35Y-3.225
X4.35Y-3.325
X4.35Y-3.425
X4.35Y-3.525
X4.35Y-3.625
X4.35Y-3.725
X4.35Y-3.825
X4.35Y-3.925
X4.35Y-4.025
X4.35Y-4.125
X4.35Y-4.225
X4.35Y-4.325
X4.65Y-3.025
X4.65Y-3.125
X4.65Y-3.225
X4.65Y-3.325
X4.65Y-3.425
X4.65Y-3.525
X4.65Y-3.625
X4.65Y-3.725
X4.65Y-3.825
X4.65Y-3.925
X4.65Y-4.025
X4.65Y-4.125
X4.65Y-4.225
X4.65Y-4.325
X5.05Y-3.325
X5.05Y-3.425
X5.05Y-3.525
X5.05Y-3.625
X5.05Y-3.725
X5.05Y-3.825
X5.05Y-3.925
X5.05Y-4.025
X5.35Y-3.325
X5.35Y-3.425
X5.35Y-3.525
X5.35Y-3.625
X5.35Y-3.725
X5.35Y-3.825
X5.35Y-3.925
X5.35Y-4.025
T4
X6.775Y-3.0
X6.775Y-3.1
X6.95Y-3.0
X6.95Y-3.1
X6.575Y-3.0
X6.575Y-3.1
X7.3Y-3.0
X7.3Y-3.1
X7.125Y-3.0
X7.125Y-3.1
T5
X5.35Y-4.3
X5.35Y-4.4
X6.15Y-4.3
X6.15Y-4.4
X5.975Y-4.3
X5.975Y-4.4
X6.05Y-3.05
X6.05Y-3.15
X6.05Y-3.25
X6.05Y-3.35
X5.675Y-3.75
X5.675Y-3.85
X5.55Y-3.325
X5.55Y-3.425
X4.875Y-4.45
X4.875Y-4.55
X4.875Y-4.65
X4.975Y-4.45
X4.975Y-4.55
X4.975Y-4.65
X6.325Y-3.05
X6.325Y-3.15
X6.325Y-3.25
X6.325Y-3.35
X5.75Y-4.3
X5.75Y-4.4
X6.1Y-3.95
X6.1Y-4.05
X5.825Y-3.75
X5.825Y-3.85
X4.8Y-3.025
X4.8Y-3.125
X4.8Y-3.225
X4.8Y-3.325
X4.8Y-3.425
X4.8Y-3.525
X4.8Y-3.625
X4.8Y-3.725
X5.175Y-4.3
X5.175Y-4.4
X6.3Y-3.875
X6.3Y-3.975
X6.3Y-4.075
X4.2Y-3.025
X4.2Y-3.125
X4.2Y-3.225
X4.2Y-3.325
X4.2Y-3.425
X4.2Y-3.525
X4.2Y-3.625
X4.2Y-3.725
X5.775Y-3.325
X5.775Y-3.425
X5.575Y-4.3
X5.575Y-4.4
T6
X5.17Y-4.69
X5.27Y-4.69
X5.37Y-4.69
X5.47Y-4.69
X5.57Y-4.69
X5.67Y-4.69
X5.77Y-4.69
X5.87Y-4.69
X6.07Y-4.69
X6.17Y-4.69
X6.27Y-4.69
X6.37Y-4.69
X6.47Y-4.69
X6.57Y-4.69
X6.67Y-4.69
X6.77Y-4.69
X5.87Y-2.79
X5.97Y-2.79
X6.07Y-2.79
X6.17Y-2.79
X6.27Y-2.79
X6.37Y-2.79
X6.47Y-2.79
X6.57Y-2.79
X6.77Y-2.79
X6.87Y-2.79
X6.97Y-2.79
X7.07Y-2.79
X7.17Y-2.79
X7.27Y-2.79
X7.37Y-2.79
X7.47Y-2.79
X7.77Y-2.79
X7.77Y-2.89
X7.77Y-2.99
X7.77Y-3.09
X7.77Y-3.19
X7.77Y-3.29
X7.77Y-3.39
X7.77Y-3.49
X7.77Y-3.59
X7.77Y-3.69
X7.77Y-3.79
X7.77Y-3.89
X7.77Y-3.99
X7.77Y-4.09
X7.77Y-4.19
X7.77Y-4.29
X7.77Y-4.39
X7.77Y-4.49
X7.87Y-2.79
X7.87Y-2.89
X7.87Y-2.99
X7.87Y-3.09
X7.87Y-3.19
X7.87Y-3.29
X7.87Y-3.39
X7.87Y-3.49
X7.87Y-3.59
X7.87Y-3.69
X7.87Y-3.79
X7.87Y-3.89
X7.87Y-3.99
X7.87Y-4.09
X7.87Y-4.19
X7.87Y-4.29
X7.87Y-4.39
X7.87Y-4.49
X6.97Y-4.69
X7.07Y-4.69
X7.17Y-4.69
X7.27Y-4.69
X7.37Y-4.69
X7.47Y-4.69
X7.57Y-4.69
X7.67Y-4.69
X4.81Y-2.79
X4.91Y-2.79
X5.01Y-2.79
X5.11Y-2.79
X5.21Y-2.79
X5.31Y-2.79
X5.41Y-2.79
X5.51Y-2.79
X5.61Y-2.79
X5.71Y-2.79
T7
X7.375Y-3.975
X7.375Y-4.1522
X7.6309Y-3.975
X7.6309Y-4.1522
X6.95Y-4.325
X6.95Y-4.5022
X7.2059Y-4.325
X7.2059Y-4.5022
X7.35Y-3.25
X7.35Y-3.4272
X7.6059Y-3.25
X7.6059Y-3.4272
X6.525Y-3.975
X6.525Y-4.1522
X6.7809Y-3.975
X6.7809Y-4.1522
X6.95Y-3.975
X6.95Y-4.1522
X7.2059Y-3.975
X7.2059Y-4.1522
X6.95Y-3.625
X6.95Y-3.8022
X7.2059Y-3.625
X7.2059Y-3.8022
T8
X4.67Y-2.79
X7.87Y-4.69
X6.67Y-3.39
X4.62Y-4.69
X7.62Y-2.79
X6.67Y-4.49
T0
M30
